<?xml version="1.0" encoding="UTF-8" standalone="no"?>
<!-- Created with Inkscape (http://www.inkscape.org/) -->

<svg
   width="297mm"
   height="210mm"
   viewBox="0 0 297 210"
   version="1.1"
   id="svg1"
   sodipodi:docname="logofajne123.svg"
   xml:space="preserve"
   inkscape:version="1.3.2 (091e20e, 2023-11-25, custom)"
   xmlns:inkscape="http://www.inkscape.org/namespaces/inkscape"
   xmlns:sodipodi="http://sodipodi.sourceforge.net/DTD/sodipodi-0.dtd"
   xmlns="http://www.w3.org/2000/svg"
   xmlns:svg="http://www.w3.org/2000/svg"><sodipodi:namedview
     id="namedview1"
     pagecolor="#ffffff"
     bordercolor="#000000"
     borderopacity="0.25"
     inkscape:showpageshadow="2"
     inkscape:pageopacity="0.0"
     inkscape:pagecheckerboard="0"
     inkscape:deskcolor="#d1d1d1"
     inkscape:document-units="mm"
     inkscape:lockguides="false"
     showguides="true"
     inkscape:zoom="0.93895903"
     inkscape:cx="523.98452"
     inkscape:cy="544.7522"
     inkscape:window-width="1366"
     inkscape:window-height="705"
     inkscape:window-x="-8"
     inkscape:window-y="-8"
     inkscape:window-maximized="1"
     inkscape:current-layer="svg1" /><defs
     id="defs1"><rect
       x="28.755247"
       y="385.53333"
       width="747.63647"
       height="168.27145"
       id="rect61" /></defs><g
     id="layer1"
     style="display:inline" /><g
     id="layer2"
     style="display:inline" /><g
     id="g1"
     transform="matrix(1.0929863,0,0,1.0929863,19.623921,-21.015781)"><path
       id="rect60-7-2"
       style="display:inline;fill:#868d93;stroke:#102337;stroke-width:0"
       d="m 209.95432,103.78864 h 18.51785 v 2.53736 h -18.51785 z" /><path
       style="display:inline;fill:#0000ff;fill-opacity:0;stroke:#2b3d55;stroke-width:4.15563;stroke-linejoin:miter;stroke-dasharray:none;stroke-opacity:1"
       id="path7"
       d="M 45.932229,106.47894 A 76.748012,69.296024 89.999999 0 1 107.37175,29.871926" /><path
       id="rect9-7-7"
       style="display:inline;fill:#20557f;fill-opacity:1;stroke:#0a1c34;stroke-width:3.07023;stroke-linejoin:miter;stroke-dasharray:none;stroke-opacity:1"
       d="m 129.86903,59.512623 v 4.620942 c 0.0523,0.03773 0.10456,0.07654 0.15655,0.115186 v -4.736126 z m 0,8.086049 v 2.815093 h 0.15655 v -2.696692 c -0.0522,-0.03874 -0.10434,-0.07877 -0.15655,-0.118401 z" /><path
       id="rect9-7-7-6-0"
       style="display:inline;fill:#031425;fill-opacity:1;stroke:#04070d;stroke-width:2.41324;stroke-linejoin:miter;stroke-dasharray:none;stroke-opacity:1"
       d="m 144.52766,62.689236 v 1.762431 c 0.0847,0.01439 0.16919,0.0292 0.25339,0.04393 v -1.806363 z m 0,3.084025 v 1.073679 h 0.25339 v -1.028521 c -0.0846,-0.01478 -0.169,-0.03004 -0.25339,-0.04516 z" /><path
       id="rect12-9"
       style="display:inline;fill:#1e69a2;stroke:#1e69a2;stroke-width:2.90528"
       d="m 126.69759,74.913284 h 6.12635 v 30.972396 h -6.12635 z" /><path
       id="rect60-7"
       style="display:inline;fill:#868d93;stroke:#102337;stroke-width:0"
       d="m 36.330463,103.43848 h 7.752775 v 2.53735 h -7.752775 z" /><path
       style="display:inline;fill:#0000ff;fill-opacity:0;stroke:#2b3d55;stroke-width:4.15563;stroke-linejoin:miter;stroke-dasharray:none;stroke-opacity:1"
       id="path7-1"
       d="M 185.30154,106.58814 A 69.296024,76.748012 1.4036832e-6 0 0 123.86202,29.981127" /><path
       id="rect8-5"
       style="display:inline;fill:#1f567f;stroke:#1f567f;stroke-width:3.39244"
       d="m 128.57642,48.849072 h 2.31576 c 0.72771,0 1.31354,0.585839 1.31354,1.313541 v 9.978482 c 0,0.727702 -0.58583,1.313542 -1.31354,1.313542 h -2.31576 c -0.7277,0 -1.31354,-0.58584 -1.31354,-1.313542 v -9.978482 c 0,-0.727702 0.58584,-1.313541 1.31354,-1.313541 z" /><path
       id="rect9"
       style="display:inline;fill:#20557f;fill-opacity:1;stroke:#0a1c34;stroke-width:3.10086;stroke-linejoin:miter;stroke-dasharray:none;stroke-opacity:1"
       d="m 115.67866,35.117965 v 5.860762 c 0.0421,0.04785 0.0841,0.09707 0.12592,0.146091 v -6.00685 z m 0,10.255572 v 3.570396 h 0.12592 v -3.420227 c -0.042,-0.04913 -0.084,-0.09991 -0.12592,-0.150169 z" /><path
       id="rect9-7"
       style="display:inline;fill:#20557f;fill-opacity:1;stroke:#0a1c34;stroke-width:3.07023;stroke-linejoin:miter;stroke-dasharray:none;stroke-opacity:1"
       d="m 102.19054,44.209173 v 4.620942 c 0.0523,0.03773 0.10454,0.07654 0.15656,0.115186 v -4.736126 z m 0,8.086048 v 2.815093 h 0.15656 v -2.696691 c -0.0522,-0.03874 -0.1044,-0.07877 -0.15656,-0.118402 z" /><path
       id="rect8"
       style="display:inline;fill:#1f567f;stroke:#1f567f;stroke-width:3.39244"
       d="m 114.59382,22.336634 h 2.31576 c 0.7277,0 1.31354,0.585839 1.31354,1.313542 v 9.978481 c 0,0.727702 -0.58584,1.313542 -1.31354,1.313542 h -2.31576 c -0.72771,0 -1.31355,-0.58584 -1.31355,-1.313542 v -9.978481 c 0,-0.727703 0.58584,-1.313542 1.31355,-1.313542 z" /><path
       id="rect9-7-7-6-0-2"
       style="display:inline;fill:#031425;fill-opacity:1;stroke:#04070d;stroke-width:3.03855;stroke-linejoin:miter;stroke-dasharray:none;stroke-opacity:1"
       d="m 86.746168,67.496914 v 2.352975 c 0.100514,0.0192 0.200904,0.03898 0.300896,0.05865 V 67.49691 Z m 0,4.117402 v 1.433441 h 0.300896 v -1.373152 c -0.100514,-0.01973 -0.200691,-0.0401 -0.300896,-0.06029 z" /><path
       id="rect12-1"
       style="display:inline;fill:#132330;stroke:#132330;stroke-width:2.64951"
       d="M 85.071663,81.151527 H 91.45379 V 105.87801 H 85.071663 Z" /><path
       id="rect12-35"
       style="display:inline;fill:#132330;stroke:#132330;stroke-width:3.04376"
       d="m 140.88986,70.737267 h 5.98787 v 34.781383 h -5.98787 z" /><path
       id="rect12-6"
       style="display:inline;fill:#1e69a2;stroke:#1e69a2;stroke-width:2.34714"
       d="m 154.83202,87.405411 h 6.68448 v 18.527139 h -6.68448 z" /><path
       id="rect10"
       style="display:inline;fill:#1e69a2;stroke:#1e69a2;stroke-width:3.20938"
       d="m 112.95652,55.914616 h 5.82253 v 49.709004 h -5.82253 z" /><path
       id="rect12"
       style="display:inline;fill:#1e69a2;stroke:#1e69a2;stroke-width:3.29827"
       d="m 99.533157,62.925179 h 5.733363 v 42.654011 h -5.733363 z" /><path
       id="rect12-2"
       style="display:inline;fill:#132330;stroke:#132330;stroke-width:2.67883"
       d="m 168.39928,80.090668 h 6.3528 v 25.393752 h -6.3528 z" /><path
       id="rect57-4-9-5"
       style="display:inline;fill:#14202c;stroke:#102337;stroke-width:0"
       d="m 30.199869,84.936256 h 4.597587 v 12.839597 h -4.597587 z" /><path
       id="rect57-4-9-5-9-3"
       style="display:inline;fill:#2c4259;stroke:#102337;stroke-width:0"
       d="m 209.69688,75.024719 h 1.34564 v 25.872961 h -1.34564 z" /><path
       id="rect9-7-7-6"
       style="display:inline;fill:#20557f;fill-opacity:1;stroke:#0a1c34;stroke-width:3.07023;stroke-linejoin:miter;stroke-dasharray:none;stroke-opacity:1"
       d="m 158.24333,70.963109 v 4.620943 c 0.0523,0.03773 0.10457,0.07654 0.15656,0.115186 v -4.736126 z m 0,8.086049 v 2.815093 h 0.15656 V 79.16756 c -0.0522,-0.03874 -0.10435,-0.07877 -0.15656,-0.118402 z" /><path
       id="rect8-5-4-4-6"
       style="display:inline;fill:#102337;stroke:#102337;stroke-width:2.40592"
       d="m 85.577939,57.92091 h 2.377241 c 0.451476,0 0.814938,0.363462 0.814938,0.814938 v 6.190782 c 0,0.451476 -0.363462,0.814939 -0.814938,0.814939 h -2.377241 c -0.451476,0 -0.814939,-0.363463 -0.814939,-0.814939 v -6.190782 c 0,-0.451476 0.363463,-0.814938 0.814939,-0.814938 z" /><path
       id="rect9-7-7-6-0-2-3"
       style="display:inline;fill:#031425;fill-opacity:1;stroke:#04070d;stroke-width:2.51648;stroke-linejoin:miter;stroke-dasharray:none;stroke-opacity:1"
       d="m 73.328618,76.460743 v 2.574281 c 0.06301,0.02101 0.125948,0.04265 0.188637,0.06417 v -2.638451 z m 0,4.504658 v 1.568261 h 0.188637 V 81.03136 c -0.06301,-0.02159 -0.125811,-0.04387 -0.188637,-0.06596 z" /><path
       id="rect8-5-4-0"
       style="display:inline;fill:#031425;stroke:#031425;stroke-width:2.04968"
       d="m 71.980535,70.262924 h 3.101784 c 0.310854,0 0.561109,0.250255 0.561109,0.561109 v 4.262534 c 0,0.310854 -0.250255,0.561109 -0.561109,0.561109 h -3.101784 c -0.310854,0 -0.561109,-0.250255 -0.561109,-0.561109 v -4.262534 c 0,-0.310854 0.250255,-0.561109 0.561109,-0.561109 z" /><path
       id="rect12-3"
       style="display:inline;fill:#1e69a2;stroke:#1e69a2;stroke-width:2.22372"
       d="m 70.877258,89.600937 h 6.807906 v 16.328523 h -6.807906 z" /><path
       id="rect12-7"
       style="display:inline;fill:#132330;stroke:#132330;stroke-width:2.67884"
       d="m 56.109005,80.403175 h 6.35279 v 25.393755 h -6.35279 z" /><path
       id="rect8-5-4"
       style="display:inline;fill:#031425;stroke:#031425;stroke-width:2.27591"
       d="m 156.72502,68.656357 h 3.16711 c 0.36188,0 0.65321,0.291332 0.65321,0.653211 v 4.962202 c 0,0.361879 -0.29133,0.653211 -0.65321,0.653211 h -3.16711 c -0.36188,0 -0.65321,-0.291332 -0.65321,-0.653211 v -4.962202 c 0,-0.361879 0.29133,-0.653211 0.65321,-0.653211 z" /><path
       id="rect57"
       style="display:inline;fill:#102337;stroke:#102337;stroke-width:0"
       d="m 31.761063,78.931114 h 1.457771 v 24.557836 h -1.457771 z" /><path
       id="rect57-4-9"
       style="display:inline;fill:#14202c;stroke:#102337;stroke-width:0"
       d="m 23.493673,89.760941 h 4.597587 v 9.587644 h -4.597587 z" /><path
       id="rect57-4-9-5-9-3-9-4"
       style="display:inline;fill:#2c4259;stroke:#102337;stroke-width:0"
       d="m 193.05727,86.574631 h 4.20015 v 8.904406 h -4.20015 z" /><path
       id="rect8-5-4-4"
       style="display:inline;fill:#102337;stroke:#102337;stroke-width:2.06503"
       d="m 143.74791,55.004234 h 2.21268 c 0.37406,0 0.67519,0.301133 0.67519,0.675186 v 5.129135 c 0,0.374053 -0.30113,0.675186 -0.67519,0.675186 h -2.21268 c -0.37405,0 -0.67519,-0.301133 -0.67519,-0.675186 V 55.67942 c 0,-0.374053 0.30114,-0.675186 0.67519,-0.675186 z" /><path
       id="rect57-4"
       style="display:inline;fill:#14202c;stroke:#102337;stroke-width:0"
       d="m 25.00778,99.522148 h 1.457772 v 4.709712 H 25.00778 Z" /><path
       id="rect58"
       style="display:inline;fill:#102337;stroke:#102337;stroke-width:0"
       d="m 32.602089,95.639412 h 0.784954 v 0.05607 h -0.784954 z" /><path
       id="rect60"
       style="display:inline;fill:#868d93;stroke:#102337;stroke-width:0"
       d="M 8.3833857,103.65974 H 21.070156 v 2.53735 H 8.3833857 Z" /><path
       id="rect57-4-9-5-9-3-9"
       style="display:inline;fill:#2c4259;stroke:#102337;stroke-width:0"
       d="m 194.3399,96.535858 h 1.34564 v 4.464042 h -1.34564 z" /><path
       id="path67"
       style="fill:#031024;stroke:#102337;stroke-width:0"
       d="m 113.87652,209.94486 a 1.2215633,1.0336304 0 0 1 -1.33067,-0.92798 1.2215633,1.0336304 0 0 1 1.09178,-1.12936 1.2215633,1.0336304 0 0 1 1.33872,0.91965 1.2215633,1.0336304 0 0 1 -1.08191,1.13614 z" /><path
       id="rect57-4-9-5-9"
       style="display:inline;fill:#2c4259;stroke:#102337;stroke-width:0"
       d="m 201.99403,78.536316 h 1.34564 v 24.445704 h -1.34564 z" /><path
       id="rect57-4-9-5-9-3-9-4-8"
       style="display:inline;fill:#172b3f;stroke:#102337;stroke-width:0"
       d="m 200.03314,85.737434 h 5.23096 v 13.106901 h -5.23096 z" /><path
       id="rect59"
       style="display:inline;fill:#102337;stroke:#102337;stroke-width:0"
       d="m 32.546017,94.910522 h 0.784954 v 0.168205 h -0.784954 z" /><path
       id="rect66-4-6"
       style="fill:#040914;stroke:#102337;stroke-width:0"
       d="m 152.47058,187.66936 h 1.45777 v 14.2413 h -1.45777 z" /><path
       id="rect66-4-0"
       style="fill:#040914;stroke:#102337;stroke-width:0"
       d="m 145.79933,188.03703 h 1.45777 v 14.46558 h -1.45777 z" /><path
       id="rect66-4-9-5"
       style="fill:#040914;stroke:#102337;stroke-width:0"
       d="m 92.699883,188.46123 h 1.457771 v 12.55926 h -1.457771 z" /><path
       id="rect65-4"
       style="fill:#232a34;stroke:#102337;stroke-width:0"
       d="m 166.86522,189.71542 h 15.25053 v 1.56991 h -15.25053 z" /><path
       id="rect66-4-9-2"
       style="fill:#040914;stroke:#102337;stroke-width:0"
       d="m 80.128937,188.05818 h 1.457771 v 12.55926 h -1.457771 z" /><path
       id="rect57-4-9-5-9-3-9-4-8-7"
       style="display:inline;fill:#172b3f;stroke:#102337;stroke-width:0"
       d="m 207.94031,79.649429 h 5.15166 v 10.966009 h -5.15166 z" /><path
       d="m 43.196001,195.13916 h 0.72995 q 0.08241,0.1295 0.117734,0.18837 0.329655,0.56512 0.506256,0.74173 0.153054,0.0471 1.612954,0.0471 0.906551,0 1.612955,-0.0118 l 0.235467,-0.0353 1.42458,-0.0118 2.660786,0.0236 h 3.637977 l 0.69463,-0.10596 q 0.153054,-0.10596 0.329655,-0.56512 0.04709,-0.10596 0.129508,-0.29434 l 0.518029,-0.0118 q 0.117734,0 0.353201,0.0118 0.01177,0.81236 0.01177,2.44887 l 0.01177,1.04783 -0.01177,0.60044 q 0,0.30611 -0.04709,0.5298 -0.482709,0.15306 -0.847684,0.18838 -0.306108,-0.45917 -0.671083,-1.3304 -0.353202,-0.87123 -0.447389,-0.96541 -0.14128,-0.15306 -0.329655,-0.20015 -0.282561,-0.0589 -2.495958,-0.0589 -0.329655,0 -0.824137,0.0471 -0.07064,0.45916 -0.07064,0.75349 l 0.01177,1.57764 v 3.46137 l 0.04709,3.73217 -0.01177,1.53054 q 0,0.81236 0.141281,1.22443 0.188374,0.0824 0.69463,0.15305 0.09419,0.0118 0.87123,0.18838 0.353202,0.0824 0.62399,0.18837 0.05887,0.42384 0.05887,0.51803 0,0.10596 -0.03532,0.30611 -0.259015,0.0118 -0.423842,0.0118 -1.212659,0 -2.060343,-0.0824 -0.847684,-0.0942 -3.072855,-0.0942 -0.353201,0 -2.072116,0.14128 -0.671083,0.0471 -0.871231,0.0471 -0.01177,-0.1766 -0.02355,-0.27079 l -0.01177,-0.27079 v -0.0942 q 0.259014,-0.34143 0.977191,-0.50625 1.224433,-0.29434 1.695368,-0.52981 0.117734,-0.22369 0.141281,-0.58866 0.08241,-1.41281 0.08241,-4.49744 l -0.05887,-4.45034 q 0,-1.83665 -0.07064,-2.22517 -0.02355,-0.10596 -0.08241,-0.15305 -0.05887,-0.0589 -0.164827,-0.0706 -0.364975,-0.0471 -2.378225,-0.0471 -1.106698,0 -1.483447,0.21192 -0.506255,0.29434 -1.518767,1.60118 -0.294334,0.37675 -0.435615,0.37675 -0.541576,-0.28256 -0.69463,-0.45916 0.364975,-0.76527 1.012511,-3.06108 0.188375,-0.67108 0.270788,-0.90655 z m 16.306143,15.1759 q 0.306109,-0.16483 0.906551,-0.23547 0.600443,-0.0824 1.083152,-0.25902 0.05887,-0.23546 0.07064,-0.34142 0.02355,-0.16483 0.02355,-1.13025 l -0.01177,-2.62547 0.04709,-1.4128 -0.02355,-1.09493 0.02355,-0.63576 q 0.03532,-1.2833 0.03532,-2.40177 0,-2.44887 -0.05887,-3.13172 l -0.69463,-0.14128 q -0.953645,-0.0589 -1.271526,-0.11774 l -0.02355,-0.7064 0.04709,-0.12951 q 0.58867,-0.0942 1.083152,-0.0942 0.270788,0 1.094925,-0.0118 0.847684,0.0706 0.918325,0.0706 l 0.623989,-0.0353 1.471674,-0.0706 q 1.377486,-0.14128 2.908027,-0.14128 2.413545,0 3.838125,1.23621 1.42458,1.22443 1.42458,2.81384 0,1.18911 -0.777044,2.1663 -0.76527,0.96542 -2.366451,1.4599 0.141281,0.24724 0.376748,0.5769 0.494483,0.7064 0.800591,1.20088 l 1.883742,3.04931 q 0.706403,1.21266 0.918324,1.42458 0.223695,0.20015 0.906551,0.44739 0.529803,0.20015 0.812364,0.40029 0.07064,0.20015 0.07064,0.3532 0,0.10597 -0.01177,0.27079 h -0.317881 l -0.235468,0.0118 -0.612216,-0.0824 h -0.482709 q -0.376749,-0.0589 -0.930098,-0.0589 l -1.177339,-0.0118 q -0.129507,0 -0.824137,0.0824 -0.317882,0.0353 -0.506256,0.0589 l -0.400295,-0.77704 q -0.494482,-0.88301 -0.69463,-1.31862 -0.518029,-1.14202 -1.777782,-3.63798 -0.588669,-1.15379 -0.824137,-1.30684 -0.353202,-0.24724 -1.212659,-0.24724 -0.235468,0 -0.80059,0.0235 -0.03532,0.34143 -0.03532,0.81237 l 0.04709,2.61369 -0.05887,2.2134 q 0.329655,0.20014 0.859457,0.3061 0.918325,0.18838 1.577635,0.44739 0,0.5769 -0.04709,0.87123 -0.223694,-0.0118 -0.282561,-0.0118 l -0.482709,0.0236 q -2.531279,-0.2237 -3.002214,-0.2237 -0.306109,0 -0.435616,0.0118 l -1.624728,0.10596 q -0.741723,0.0824 -1.353939,0.0824 h -0.506256 q -0.02355,-0.29434 -0.02355,-0.37675 0,-0.12951 0.03532,-0.36497 z m 5.298025,-7.61739 q 0.565123,0.0236 0.824138,0.0236 2.001476,0 2.837386,-0.71818 0.835911,-0.71817 0.835911,-1.91906 0,-0.74172 -0.211921,-1.38926 -0.200148,-0.65931 -0.506256,-0.97719 -0.435615,-0.45916 -1.142018,-0.69463 -0.51803,-0.1766 -1.660048,-0.1766 -0.541576,0 -0.930098,0.0589 l -0.01177,0.22369 0.01177,1.58941 -0.02355,0.96542 0.01177,1.2833 q -0.02355,0.54157 -0.03532,1.40103 z m 10.231076,8.33556 0.02355,-0.80059 q 0.223695,-0.0706 0.788817,-0.1766 0.906551,-0.1766 1.094926,-0.31788 0.200147,-0.14128 0.482709,-0.68286 l 2.378224,-6.22812 2.790293,-7.32305 q 0.388522,0.0118 0.741724,0.0118 h 0.529802 l 0.105961,0.21192 2.048569,4.85063 q 0.69463,1.54232 1.24798,3.00222 0.553349,1.44812 0.953644,2.36645 0.235468,0.55335 0.647537,1.66005 0.211921,0.60044 0.647536,1.50699 0.235468,0.49448 0.353202,0.5769 0.211921,0.1766 0.682856,0.23546 0.482709,0.0589 1.036058,0.27079 0.05887,0.38852 0.05887,0.5769 0,0.0824 -0.01177,0.25901 -0.871231,0 -1.919062,-0.0824 -1.047832,-0.0824 -1.883743,-0.0824 -0.930097,0 -1.342166,0.0235 l -2.001476,0.10596 -0.576896,0.0236 q 0,-0.41207 0.03532,-0.78882 l 1.306846,-0.28256 q 0.58867,-0.15305 0.682857,-0.23547 0.117734,-0.11773 0.117734,-0.27078 0,-0.15306 -0.05887,-0.31789 l -0.470936,-1.15379 -0.930098,-2.30758 -4.497434,-0.0118 q -0.247241,0.56513 -1.024285,2.76675 -0.223694,0.62399 -0.223694,0.84768 0,0.30611 0.164827,0.43562 0.270788,0.22369 1.036058,0.31788 0.105961,0.0236 0.835911,0.12951 0.01177,0.42384 0.01177,0.58867 0,0.12951 -0.02355,0.27079 -0.729951,0 -3.484924,-0.20015 l -0.482709,0.0824 q -0.87123,0.14128 -1.660047,0.14128 z m 5.533492,-6.61664 q 2.754973,0.0353 3.249456,0.0353 l 0.294334,-0.0118 q -0.353201,-1.04783 -0.918324,-2.43709 -0.565123,-1.40103 -0.918324,-2.13098 z m 11.196495,5.663 q 0.176601,-0.0471 0.72995,-0.14128 1.094926,-0.18838 1.436354,-0.50626 0.211921,-0.20015 0.270788,-0.76527 0.01177,-0.14128 0.08241,-3.59088 l -0.01177,-1.29507 0.01177,-1.56587 -0.04709,-4.01472 0.01177,-0.47094 q 0,-0.3061 -0.164827,-0.47093 -0.08241,-0.0824 -0.459162,-0.0824 -0.306108,0 -0.706404,0.0706 -0.518029,0.0236 -0.930097,0.0942 -0.07064,0.0118 -0.223695,0.0353 l -0.01177,-1.03606 q 0.69463,-0.22369 1.989703,-0.43561 2.142756,-0.3532 5.274478,-0.3532 2.61369,0 3.82635,0.29433 1.83665,0.45916 2.99044,1.36571 1.54232,1.21266 2.30759,2.81384 0.77704,1.58941 0.77704,3.47315 0,2.37823 -1.03606,4.08537 -1.03606,1.69537 -2.97867,2.71965 -1.36571,0.72995 -3.70861,0.72995 l -2.413548,-0.10596 -0.706403,-0.0353 -0.953645,0.0236 -0.282561,-0.0236 -0.988965,0.0236 -1.306846,-0.0118 q -0.07064,0 -1.200886,0.0824 -0.376748,0.0236 -0.988964,0.0353 -0.376749,0 -0.565123,0.0118 -0.02355,-0.25901 -0.02355,-0.95364 z m 5.710094,-13.11556 q -0.03532,0.36498 -0.03532,0.51803 l 0.03532,2.00148 -0.02355,1.74246 q 0.03532,0.84768 0.03532,1.48345 l -0.01177,1.11847 0.02355,1.87197 -0.02355,1.15379 q 0,1.61295 0.600443,2.18985 0.871231,0.82414 2.401771,0.82414 1.16557,0 1.71891,-0.2237 1.1538,-0.44739 1.82488,-1.18911 0.68286,-0.74172 1.03606,-2.09566 0.3532,-1.36572 0.3532,-2.81384 0,-2.37823 -0.76527,-3.88522 -0.7535,-1.50699 -2.07212,-2.26049 -1.31862,-0.76527 -3.025758,-0.76527 -1.200885,0 -2.072116,0.32965 z m 13.492294,14.08098 v -0.84769 q 0.23547,-0.0706 0.77705,-0.20015 0.76527,-0.18837 1.14202,-0.38852 0.21192,-0.36497 0.21192,-1.01251 l -0.0118,-1.38926 0.0236,-2.68433 -0.0118,-0.63576 q 0.0824,-2.33114 0.0824,-2.40178 l -0.0235,-1.56586 0.0353,-0.63576 -0.0589,-1.34217 -0.0118,-0.50625 q -0.0118,-0.11774 -0.0824,-0.37675 -0.48271,-0.22369 -1.56586,-0.28256 -0.25901,-0.0118 -0.41207,-0.0353 l -0.0353,-1.03606 3.36719,0.14128 q 0.62399,0.0236 0.77704,0.0236 0.69463,0 2.22518,-0.0942 0.85945,-0.0589 1.08315,-0.0706 0.0118,0.22369 0.0118,0.37675 0,0.20015 -0.0236,0.51803 -0.47093,0.16483 -1.08315,0.31788 -0.60044,0.14128 -0.98896,0.29433 -0.0706,0.30611 -0.0706,0.88301 0,0.50625 0.0353,0.82414 -0.0353,1.9897 -0.0353,3.06108 l 0.0118,3.10817 -0.0353,1.57764 0.0236,2.35467 -0.0118,0.44739 q 0,0.0942 0.0471,0.27079 0.71817,0.15305 1.30684,0.21192 0.10596,0.0118 0.71818,0.0942 0.0471,0.3532 0.0471,0.58867 0,0.1295 -0.0118,0.40029 -0.15305,0 -0.23547,0.0118 -0.37675,0.0235 -0.43561,0.0235 -0.0824,0 -0.30611,-0.0353 -0.16483,-0.0235 -1.56586,-0.16482 l -2.08389,-0.0236 q -0.62399,0 -1.8131,0.11773 -0.77705,0.0706 -1.01252,0.0824 z m 8.71231,-14.31644 -0.0471,-0.82414 h 1.00074 l 0.34142,-0.0118 q 0.70641,-0.0353 0.9772,-0.0353 0.14128,0 0.82413,0.0236 0.15306,0.0118 0.25902,0.0118 0.10596,0 0.74172,-0.0235 0.63576,-0.0236 0.71818,-0.0236 0.12951,0 0.36497,0.0118 1.81311,1.64828 2.95512,2.83739 1.14202,1.18911 8.33556,8.32379 v -0.29434 l -0.0471,-1.36571 q -0.0353,-1.20089 -0.0942,-1.89552 -0.0589,-0.7064 -0.0706,-1.67182 -0.0118,-0.97719 -0.0824,-1.76601 -0.14128,-1.54231 -0.14128,-1.77778 -0.0118,-0.76527 -0.16483,-0.9301 -0.24724,-0.25901 -1.13025,-0.38852 -0.64753,-0.10596 -0.96541,-0.27079 l 0.0118,-0.69463 0.30611,-0.0353 2.31936,-0.0706 2.59014,-0.0706 q 0.25902,-0.0118 0.49448,-0.0118 l 0.0118,0.76527 q -0.27079,0.14128 -0.55335,0.21192 -0.7535,0.1766 -0.87123,0.24724 -0.60045,0.34143 -0.64754,0.41207 -0.10596,0.14128 -0.10596,0.43562 0,0.0706 0.0236,0.49448 0.0118,0.21192 0.0118,0.98896 0.0118,1.70715 0.0942,2.69611 0.0235,0.31788 0.0353,0.71818 l 0.12951,4.13246 q 0.0118,0.43561 0.0118,0.61221 v 1.44813 l 0.0353,0.61222 -0.0353,0.63576 q 0.0471,0.48271 0.0471,0.57689 v 0.62399 l -1.35394,0.0471 -1.40103,-1.44813 -2.86093,-2.83739 -2.00148,-2.00147 -1.47167,-1.507 q -1.43636,-1.4128 -2.6137,-2.48418 l -1.91906,-1.73069 0.10596,4.3797 q 0.0118,0.4003 0.0118,0.82414 l -0.0118,0.83591 0.0706,1.54231 q 0.0353,0.96542 0.12951,2.09567 0.0236,0.3061 0.0589,0.43561 0.0353,0.11774 0.14128,0.3532 0.45916,0.16483 2.00147,0.24725 0.10596,0.0235 0.30611,0.0824 l 0.0471,0.95364 -0.45916,0.0118 q -0.37675,0 -2.37822,-0.1766 -1.87197,0.0235 -2.49596,0.0706 -0.62399,0.0471 -0.68286,0.0471 -0.14128,0 -0.38852,-0.0471 -0.0236,-0.27079 -0.0236,-0.47094 0,-0.12951 0.0118,-0.42384 0.32965,-0.0589 0.54157,-0.0589 0.0706,0 0.45917,0.0236 0.98896,0 1.16556,-0.14128 0.18838,-0.15306 0.21192,-0.80059 0.0824,-1.87197 0.0824,-2.28404 v -0.64754 l 0.0235,-3.82635 -0.0353,-2.39 q -0.0118,-1.36571 -0.1766,-1.89551 -0.0706,-0.27079 -0.27079,-0.47094 -0.41206,-0.42384 -0.91832,-0.63576 -0.30611,-0.12951 -1.58941,-0.32965 z m 35.44968,0.0589 q 0.0824,0.34143 0.18838,1.35394 0.10596,1.00074 0.10596,1.4599 0,0.1766 -0.0824,0.43562 -0.50625,-0.0118 -0.85945,-0.0942 -0.89478,-1.37749 -1.25976,-1.73069 -0.68285,-0.65931 -1.75423,-1.11847 -0.78882,-0.34143 -1.8131,-0.34143 -1.96616,0 -3.46138,1.76601 -1.49522,1.76601 -1.49522,5.25093 0,1.6365 0.57689,3.17882 0.58867,1.54231 1.75424,2.42531 1.16557,0.87124 2.7432,0.87124 0.76527,0 1.62473,-0.20015 0.43561,-0.0942 0.7064,-0.37675 0.18837,-0.18837 0.24724,-0.56512 0.0942,-0.68286 0.0942,-1.94261 0,-1.22443 -0.0353,-1.6836 -0.0824,-0.1766 -0.16483,-0.22369 -0.0706,-0.0589 -0.47093,-0.1766 l -1.04784,-0.28256 q -0.34142,-0.0824 -0.42384,-0.20015 -0.0235,-0.15306 -0.0235,-0.2237 0,-0.16482 0.0824,-0.45916 0.21192,-0.0706 0.29433,-0.0706 1.2833,0 2.22517,0.0942 0.32966,0.0236 0.71818,0.0236 l 1.8602,-0.0236 0.78881,-0.0236 q 0.14128,-0.0118 0.78882,0.0236 0.0118,0.30611 0.0118,0.51803 0,0.12951 -0.0824,0.29433 -0.20015,0.11774 -0.68286,0.29434 -0.48271,0.1766 -0.54157,0.23547 -0.0942,0.0942 -0.12951,0.29433 -0.0353,0.20015 -0.0353,1.40103 0,1.38926 -0.0118,1.66005 -0.0471,0.87123 -0.0471,0.98897 0,0.43561 -0.11773,0.54157 -0.32966,0.32966 -2.04857,0.7535 -1.70714,0.41207 -3.97941,0.41207 -1.5894,0 -2.76674,-0.24724 -1.16557,-0.25902 -1.9897,-0.7535 -1.1067,-0.65931 -1.89552,-1.60118 -0.78882,-0.94187 -1.17734,-2.0368 -0.54158,-1.55409 -0.54158,-3.0964 0,-1.73069 0.8006,-3.50847 0.58866,-1.2833 1.64827,-2.30758 1.07138,-1.03606 2.67256,-1.64828 1.60118,-0.61221 3.48492,-0.61221 0.23547,0 0.76527,0.0589 1.43636,0 2.68433,0.36498 1.24798,0.3532 2.07212,0.84768 z"
       id="text63"
       style="font-weight:bold;font-size:24.1119px;line-height:0;font-family:Garamond;-inkscape-font-specification:'Garamond Bold';fill:#10202c;stroke:#102337;stroke-width:0"
       transform="scale(1.1671766,0.85676837)"
       aria-label="TRADING&#10;" /><path
       id="rect66"
       style="fill:#122b41;stroke:#102337;stroke-width:0"
       d="m 112.47911,188.92517 h 2.57913 v 16.48403 h -2.57913 z" /><path
       id="rect65"
       style="fill:#232a34;stroke:#102337;stroke-width:0"
       d="m 48.74971,189.6096 h 15.250533 v 1.56991 H 48.74971 Z" /><path
       id="rect66-4"
       style="fill:#040914;stroke:#102337;stroke-width:0"
       d="m 105.08897,188.95851 h 1.45777 v 12.55926 h -1.45777 z" /><path
       id="rect66-4-5"
       style="fill:#040914;stroke:#102337;stroke-width:0"
       d="m 120.90087,188.89552 h 1.45777 v 14.46558 h -1.45777 z" /><path
       id="rect66-4-9"
       style="fill:#040914;stroke:#102337;stroke-width:0"
       d="m 98.925835,188.85326 h 1.457775 v 12.55926 h -1.457775 z" /><path
       id="rect66-4-9-8"
       style="fill:#040914;stroke:#102337;stroke-width:0"
       d="m 86.382927,188.4856 h 1.457771 v 12.55926 h -1.457771 z" /><path
       id="rect66-4-7"
       style="fill:#040914;stroke:#102337;stroke-width:0"
       d="m 127.11822,189.16573 h 1.45777 v 14.2413 h -1.45777 z" /><path
       style="font-weight:bold;font-size:54.2381px;font-family:Garamond;-inkscape-font-specification:'Garamond Bold';fill:#10202c;stroke:#102337;stroke-width:0"
       d="m 38.174163,93.252251 q 0.344285,0.794503 1.403623,4.528669 0.476702,1.694941 0.503185,3.60175 H 37.670978 Q 35.128567,97.78092 32.427255,96.218397 29.725944,94.62939 26.38903,94.62939 q -4.104935,0 -6.620862,3.204497 -3.416365,4.343283 -3.416365,12.102933 0,4.50219 0.582636,6.409 0.953404,3.09856 2.409994,5.05833 1.112305,1.48308 2.913179,2.35703 2.330543,1.19176 4.978888,1.19176 2.913179,0 5.61449,-1.80088 2.727795,-1.82736 5.217239,-5.4291 0.979888,-0.18539 2.568895,-0.21187 -0.105934,1.00637 -0.344285,2.09219 -0.07945,0.42373 -0.609119,3.3634 l -0.238351,0.7945 -0.370769,1.24472 q -1.61549,1.24472 -4.555152,1.88033 -2.91318,0.60912 -7.177014,0.60912 -3.257464,0 -6.170643,-0.60912 -2.886696,-0.60912 -4.952405,-1.93329 -3.019113,-1.90681 -4.740537,-4.13142 -1.7214238,-2.22461 -2.5688941,-4.84647 -0.8209868,-2.62186 -0.8209868,-5.87933 0,-7.89206 5.1907559,-13.029853 5.217238,-5.137789 13.29469,-5.137789 3.283947,0 6.170643,0.344285 2.913179,0.317802 5.429106,0.979888 z m 6.356027,33.739909 v -1.90681 q 0.529669,-0.1589 1.747908,-0.45022 1.721424,-0.42373 2.568894,-0.87395 0.476702,-0.82099 0.476702,-2.27758 l -0.02648,-3.12504 0.05297,-6.03823 -0.02648,-1.4301 q 0.185384,-5.24373 0.185384,-5.40263 l -0.05297,-3.5223 0.07945,-1.4301 -0.132418,-3.019114 -0.02648,-1.138789 q -0.02648,-0.264834 -0.185384,-0.84747 -1.085821,-0.503185 -3.522299,-0.635603 -0.582635,-0.02648 -0.92692,-0.07945 l -0.07945,-2.330543 7.574265,0.317801 q 1.403623,0.05297 1.747908,0.05297 1.562523,0 5.005371,-0.211868 1.933292,-0.132417 2.436477,-0.1589 0.02648,0.503185 0.02648,0.84747 0,0.450219 -0.05297,1.165272 -1.059338,0.370768 -2.436477,0.715053 -1.350656,0.317801 -2.22461,0.662086 -0.158901,0.688569 -0.158901,1.986258 0,1.138789 0.07945,1.853842 -0.07945,4.475698 -0.07945,6.885698 l 0.02648,6.99163 -0.07945,3.54878 0.05297,5.29669 -0.02648,1.00637 q 0,0.21187 0.105934,0.60912 1.61549,0.34428 2.939662,0.4767 0.238351,0.0265 1.61549,0.21187 0.105934,0.7945 0.105934,1.32417 0,0.29132 -0.02648,0.90044 -0.344285,0 -0.529669,0.0265 -0.84747,0.053 -0.979888,0.053 -0.185384,0 -0.688569,-0.0794 -0.370768,-0.053 -3.522299,-0.37077 l -4.68757,-0.053 q -1.403622,0 -4.07845,0.26484 -1.747908,0.1589 -2.277577,0.18538 z M 64.922446,92.696098 q 1.509556,0.07945 2.621861,0.238351 2.092192,0.291318 4.846471,0.291318 0.953404,0 4.899437,-0.1589 5.905809,-0.238351 10.672829,-0.238351 l 4.793504,-0.05297 q 1.61549,0 4.76702,0.397251 0.476702,0.529669 0.476702,1.430106 v 5.455594 l 0.05297,1.08582 q 0,0.1589 -0.02648,0.4767 l -1.085821,0.053 q -0.211868,0 -0.900438,-0.053 -0.238351,-0.52967 -0.635602,-1.56252 l -1.059338,-1.880328 q -0.609119,-1.191755 -1.694941,-2.436477 -0.662086,-0.185384 -1.69494,-0.211868 -0.264835,-0.02648 -1.615491,-0.132417 -2.46296,-0.211868 -5.296689,-0.211868 -3.23098,0 -5.773391,0.105934 -0.07945,0.662086 -0.07945,5.217234 l 0.05297,4.44922 v 3.33692 q 0.662087,0.0795 1.138789,0.0795 4.740537,0 6.753278,-0.18539 2.012742,-0.18538 2.489444,-0.50318 0.476702,-0.34429 0.847471,-1.16527 0.238351,-0.58264 0.92692,-3.89307 l 0.344285,-0.0265 1.53604,0.0265 q 0.105934,2.35703 0.105934,3.57527 0,2.78076 -0.05297,3.57526 -0.02648,0.7945 -0.02648,1.24472 0,0.71506 0.07945,2.30406 0.07945,1.56253 0.07945,2.33055 v 0.58263 h -1.880325 q -0.105933,-0.42373 -0.397251,-1.74791 -0.529669,-2.46296 -0.953404,-3.07208 -0.317802,-0.4767 -1.059338,-0.71505 -0.529669,-0.18538 -3.91955,-0.18538 -3.999001,0 -6.011743,0.21187 -0.02648,0.68856 -0.02648,0.90043 0,3.15153 0.105934,5.24372 l -0.05297,5.72043 q 0,1.00637 0.715053,1.37714 1.085821,0.55615 6.647345,0.55615 3.681199,0 6.250093,-0.55615 1.774391,-0.39725 3.125047,-1.77439 1.800874,-1.77439 2.992629,-4.97889 0.820987,-0.0794 1.350656,-0.0794 0.291318,0 0.873954,0.0265 -0.0794,0.66209 -0.13242,1.11231 l -0.158898,0.7945 -0.979888,5.00537 -0.476702,3.01912 q -1.721424,0.0794 -2.727795,0.0794 -1.483073,0 -7.91855,-0.26484 -4.528669,-0.18538 -10.91118,-0.18538 -3.178013,0 -7.812617,0.26483 h -1.112304 l -3.204497,0.10594 v -1.82736 q 0.503185,-0.13242 2.012742,-0.29132 2.754278,-0.3178 3.813616,-0.84747 0.291318,-0.76802 0.291318,-1.93329 0,-0.45022 -0.02648,-1.53604 l 0.02648,-0.82099 -0.07945,-9.98426 0.02648,-2.99263 -0.132417,-4.23735 0.02648,-2.992629 -0.238351,-3.283947 q 0,-0.132417 -0.05297,-0.529669 -0.264834,-0.291318 -0.794503,-0.370768 -0.291318,-0.05297 -0.794504,-0.158901 -1.509556,-0.317801 -2.913179,-0.370768 -0.503185,-0.02648 -1.165271,-0.105934 z m 38.559894,32.097942 q 0.82098,-0.23836 2.30406,-0.45022 1.50955,-0.23835 1.77439,-0.23835 1.03285,-0.0265 1.37714,-0.34429 0.1589,-0.6356 0.1589,-1.05934 l -0.053,-3.38988 0.1589,-3.44285 v -2.19812 l 0.0265,-2.59538 -0.053,-2.75428 0.10593,-5.90581 0.0265,-2.674825 v -0.370768 q -0.18539,-2.780762 -0.37077,-3.045597 -0.1589,-0.291317 -1.50956,-0.715053 -0.13242,-0.05297 -1.00637,-0.397251 -0.66209,-0.264835 -1.19175,-0.370769 -0.92693,-0.238351 -1.29769,-0.556152 -0.053,-0.68857 -0.053,-1.059338 0,-0.211867 0.0265,-0.635602 0.23835,-0.132418 0.50319,-0.132418 0.6356,0 4.60812,0.211868 l 3.78713,-0.02648 2.80725,0.05297 q 1.82735,0 4.68757,-0.238351 0.84747,-0.07945 0.97988,-0.07945 0.39726,0 0.55616,0.211868 0.21186,0.291317 0.21186,1.059337 0,0.60912 -0.29131,0.926921 -0.1589,0.185384 -1.16528,0.317801 l -3.28394,0.76802 q -0.13242,0.05297 -0.45022,0.211868 -0.10594,0.185384 -0.1589,0.317801 l -0.0265,0.741537 -0.0795,1.668457 v 0.476702 l 0.0265,0.291318 q 0,0.132417 -0.0794,1.456593 -0.0265,0.34428 -0.0265,0.68857 0,0.42373 0.053,1.4301 0.0794,1.58901 0.0794,2.78076 0,1.37714 -0.0794,3.15153 -0.0265,0.66209 -0.0265,1.72143 l -0.10594,12.55315 q 0,0.79451 0.26484,1.03286 l 2.51593,0.10593 1.56252,-0.0265 1.66846,0.053 q 4.26383,0 6.70031,-0.97988 1.82736,-0.74154 2.38351,-1.48308 0.90044,-0.7945 1.45659,-1.72142 0.58263,-0.92692 1.29769,-3.07208 h 0.84747 q 0.6356,0 1.4301,0.10593 v 0.74154 q 0,1.90681 -0.4767,6.67383 -0.18538,1.90681 -0.37077,2.33054 -0.60912,0.10593 -0.76802,0.10593 h -0.97989 l -1.37713,0.0265 q -0.23836,0 -3.15153,-0.21187 -0.52967,-0.0265 -5.05834,-0.18538 -4.52867,-0.1589 -8.87196,-0.1589 l -5.40262,0.1589 q -3.12505,0.0794 -5.85284,0.29131 h -0.39725 q -0.1589,0 -0.50319,-0.0265 -0.053,-0.29132 -0.053,-0.50318 0,-1.11231 0.18539,-1.61549 z m 30.29705,-31.912558 q 0.71506,-0.211867 3.31043,-0.211867 l 0.26484,0.05297 q 0.66209,0.105934 0.92692,0.105934 l 0.26483,-0.02648 q 0.39726,0.05297 2.17165,0.185384 3.28394,0.238351 5.21724,0.238351 2.11867,0 4.1579,-0.291318 0.29131,-0.05297 0.42373,-0.05297 l 0.21187,0.02648 q 0.13242,0.344285 0.13242,0.529669 l -0.0265,1.377139 q -0.60912,0.238351 -1.45659,0.370768 l -1.19175,0.211868 q -0.66209,0.132417 -1.77439,0.291318 l -0.1589,0.105934 -0.053,0.344284 q 0.87395,1.880325 3.70768,5.852844 0.74154,1.2712 1.48308,2.38351 0.21186,0.29132 1.50955,2.46296 0.13242,0.23835 0.29132,0.4767 0.23835,0.37077 0.4767,0.71505 0.45022,0.66209 0.58264,0.87396 0.52967,0.84747 0.90044,1.29769 l 2.75427,-3.86659 q 1.35066,-1.7479 3.5223,-5.08482 l 0.10594,-0.13242 2.25109,-3.998996 q 0.52967,-0.76802 0.52967,-1.138788 0,-0.132418 -0.0795,-0.450219 -0.39725,-0.264834 -0.66209,-0.317801 -0.10593,-0.05297 -1.1123,-0.105934 -0.55616,-0.105934 -1.05934,-0.185384 -0.50319,-0.07945 -0.82099,-0.158901 -0.053,-0.344285 -0.1589,-1.959775 l 5.42911,0.291318 q 0.23835,0.02648 0.66208,0.105934 h 1.27121 l 0.45022,-0.02648 q 0.84747,-0.132417 2.19812,-0.211867 0.39726,-0.02648 0.76802,-0.07945 l -0.0265,1.986259 -0.34428,0.105934 q -2.22461,0.370768 -3.0456,0.979887 -1.19176,0.900437 -3.2045,4.343288 l -3.44285,5.16427 q -3.09856,4.21087 -3.999,5.74691 -0.23835,0.37077 -0.39725,0.92692 v 0.82098 l -0.0265,2.30406 v 0.63561 q -0.0794,0.68857 -0.0794,1.4301 l 0.10593,6.77977 q 0.10594,0.21186 0.29132,0.29131 0.37077,0.10594 1.69494,0.26484 2.54241,0.26483 2.83373,0.45022 0.21187,0.13241 0.21187,0.52967 0,0.23835 -0.053,0.6356 0,0.23835 -0.0265,0.74153 l -3.0456,-0.053 -2.83373,-0.23835 -1.95977,-0.13242 -2.93967,0.10593 h -2.19812 q -0.37077,-0.0265 -1.19176,0.10594 -1.32417,0.21186 -1.98626,0.21186 l -1.82735,-0.0265 q -0.0265,-0.55615 -0.0265,-0.84747 0,-0.29132 0.0265,-0.87395 l 4.87295,-1.00637 q 0.3178,-0.10594 0.60912,-0.26484 0.0265,-1.21824 0.0265,-1.50955 0,-4.05197 -0.053,-5.50856 -0.053,-1.48307 -0.053,-1.72143 v -0.60911 q 0,-1.66846 -1.74791,-3.8401 -0.74153,-0.92693 -0.92692,-1.21824 l -5.19075,-7.89207 -2.43648,-3.91955 q -0.13242,-0.211868 -1.64197,-2.171643 -0.47671,-0.423735 -0.92693,-0.582635 -0.26483,-0.105934 -2.40999,-0.556153 -0.13242,-0.238351 -0.13242,-0.423735 0,-0.158901 0.0265,-0.397252 0.0265,-0.264834 0.053,-0.76802 z m 36.81201,1.906809 -0.10594,-1.853842 h 2.2511 l 0.76802,-0.02648 q 1.589,-0.07945 2.19812,-0.07945 0.3178,0 1.85384,0.05297 0.34429,0.02648 0.58264,0.02648 0.23835,0 1.66846,-0.05297 1.4301,-0.05297 1.61549,-0.05297 0.29132,0 0.82098,0.02648 4.07845,3.707682 6.64735,6.38251 2.56889,2.674824 18.75028,18.723794 v -0.66208 l -0.10593,-3.07208 q -0.0795,-2.70131 -0.21187,-4.26384 -0.13242,-1.589 -0.1589,-3.76065 -0.0265,-2.19812 -0.18539,-3.97251 -0.3178,-3.469336 -0.3178,-3.999005 -0.0265,-1.721424 -0.37077,-2.092192 -0.55615,-0.582636 -2.54241,-0.873954 -1.45659,-0.238351 -2.17164,-0.609119 l 0.0265,-1.562523 0.68857,-0.07945 5.21724,-0.1589 5.82636,-0.158901 q 0.58264,-0.02648 1.1123,-0.02648 l 0.0265,1.721424 q -0.60912,0.317802 -1.24472,0.476702 -1.69494,0.397252 -1.95978,0.556153 -1.35065,0.76802 -1.45659,0.92692 -0.23835,0.317802 -0.23835,0.979888 0,0.158901 0.053,1.112305 0.0265,0.476702 0.0265,2.224607 0.0265,3.8401 0.21187,6.06471 0.053,0.71505 0.0794,1.61549 l 0.29132,9.29569 q 0.0265,0.97989 0.0265,1.37714 v 3.25746 l 0.0795,1.37714 -0.0795,1.43011 q 0.10593,1.08582 0.10593,1.29769 v 1.40362 l -3.04559,0.10594 -3.15153,-3.25747 -6.43548,-6.38251 -4.50219,-4.50219 -3.31043,-3.38988 q -3.23098,-3.17801 -5.87932,-5.588 l -4.3168,-3.89307 0.23835,9.85184 q 0.0265,0.90044 0.0265,1.85384 l -0.0265,1.88033 0.1589,3.46933 q 0.0795,2.17164 0.29132,4.71405 0.053,0.68857 0.13241,0.97989 0.0795,0.26483 0.3178,0.7945 1.03286,0.37077 4.50219,0.55616 0.23835,0.053 0.68857,0.18538 l 0.10593,2.14516 -1.03285,0.0265 q -0.84747,0 -5.34966,-0.39725 -4.21086,0.053 -5.61449,0.1589 -1.40362,0.10594 -1.53604,0.10594 -0.3178,0 -0.87395,-0.10594 -0.053,-0.60912 -0.053,-1.05934 0,-0.29131 0.0265,-0.9534 0.74153,-0.13242 1.21823,-0.13242 0.15891,0 1.03286,0.053 2.22461,0 2.62186,-0.3178 0.42374,-0.34429 0.4767,-1.80088 0.18539,-4.21086 0.18539,-5.13778 v -1.45659 l 0.053,-8.60712 -0.0794,-5.37614 q -0.0265,-3.072084 -0.39725,-4.263839 -0.1589,-0.609119 -0.60912,-1.059338 -0.92692,-0.953404 -2.06571,-1.430106 -0.68857,-0.291318 -3.57526,-0.741536 z m 48.30581,-3.575266 h 1.64197 q 0.18538,0.291318 0.26483,0.423735 0.74154,1.271206 1.13879,1.668458 0.34429,0.105933 3.62823,0.105933 2.03923,0 3.62824,-0.02648 l 0.52967,-0.07945 3.20449,-0.02648 5.98526,0.05297 h 8.18339 l 1.56252,-0.238351 q 0.34428,-0.238351 0.74154,-1.271205 0.10593,-0.238351 0.29131,-0.662087 l 1.16528,-0.02648 q 0.26483,0 0.7945,0.02648 0.0265,1.827358 0.0265,5.508557 l 0.0265,2.357027 -0.0265,1.350658 q 0,0.68857 -0.10593,1.19175 -1.08582,0.34429 -1.90681,0.42374 -0.68857,-1.03286 -1.50956,-2.992631 -0.7945,-1.959775 -1.00637,-2.171643 -0.3178,-0.344285 -0.74153,-0.450219 -0.63561,-0.132417 -5.61449,-0.132417 -0.74154,0 -1.85385,0.105934 -0.1589,1.032854 -0.1589,1.69494 l 0.0265,3.548786 v 7.78613 l 0.10593,8.39525 -0.0265,3.44285 q 0,1.82736 0.3178,2.75428 0.42373,0.18538 1.56252,0.34428 0.21187,0.0265 1.95978,0.42374 0.7945,0.18538 1.40362,0.42373 0.13242,0.95341 0.13242,1.16528 0,0.23835 -0.0795,0.68856 -0.58264,0.0265 -0.95341,0.0265 -2.72779,0 -4.6346,-0.18539 -1.90681,-0.21186 -6.91218,-0.21186 -0.7945,0 -4.66109,0.3178 -1.50955,0.10593 -1.95977,0.10593 -0.0265,-0.39725 -0.053,-0.60912 l -0.0265,-0.60912 v -0.21186 q 0.58263,-0.76802 2.19812,-1.13879 2.75428,-0.66209 3.81362,-1.19176 0.26484,-0.50318 0.3178,-1.32417 0.18539,-3.17801 0.18539,-10.11668 l -0.13242,-10.01074 q 0,-4.131417 -0.1589,-5.005371 -0.053,-0.238351 -0.18539,-0.344284 -0.13241,-0.132418 -0.37076,-0.158901 -0.82099,-0.105934 -5.34966,-0.105934 -2.48944,0 -3.33691,0.476702 -1.13879,0.662086 -3.41637,3.601748 -0.66209,0.84747 -0.97989,0.84747 -1.21824,-0.6356 -1.56252,-1.03285 0.82099,-1.721427 2.27758,-6.885699 0.42373,-1.509557 0.60912,-2.039226 z m 29.7409,35.752655 0.053,-1.80088 q 0.50319,-0.1589 1.77439,-0.39725 2.03923,-0.39725 2.46296,-0.71505 0.45022,-0.3178 1.08583,-1.53604 l 5.34965,-14.00974 6.27658,-16.472708 q 0.87395,0.02648 1.66846,0.02648 h 1.19175 l 0.23835,0.476702 4.60812,10.911182 q 1.56253,3.46933 2.80725,6.75328 1.24472,3.25746 2.14516,5.32317 0.52967,1.24472 1.45659,3.73416 0.4767,1.35066 1.45659,3.38989 0.52966,1.1123 0.7945,1.29769 0.4767,0.39725 1.53604,0.52966 1.08582,0.13242 2.33054,0.60912 0.13242,0.87396 0.13242,1.29769 0,0.18539 -0.0265,0.58264 -1.95978,0 -4.31681,-0.18539 -2.35702,-0.18538 -4.23735,-0.18538 -2.09219,0 -3.01911,0.053 l -4.50219,0.23835 -1.29769,0.053 q 0,-0.92692 0.0795,-1.77439 l 2.93966,-0.6356 q 1.32417,-0.34428 1.53604,-0.52967 0.26483,-0.26483 0.26483,-0.60912 0,-0.34428 -0.13242,-0.71505 l -1.05933,-2.59538 -2.0922,-5.19075 -10.11667,-0.0265 q -0.55615,1.27121 -2.30406,6.22361 -0.50319,1.40363 -0.50319,1.90681 0,0.68857 0.37077,0.97989 0.60912,0.50318 2.33054,0.71505 0.23836,0.053 1.88033,0.29132 0.0265,0.9534 0.0265,1.32417 0,0.29132 -0.053,0.60912 -1.64198,0 -7.8391,-0.45022 l -1.08583,0.18539 q -1.95977,0.3178 -3.73416,0.3178 z m 12.44722,-14.8837 q 6.19712,0.0794 7.30943,0.0794 l 0.66208,-0.0265 q -0.7945,-2.35703 -2.06571,-5.48208 -1.2712,-3.15153 -2.0657,-4.7935 z"
       id="text62"
       transform="scale(0.80186199,1.2470974)"
       aria-label="CIELYNTA" /><path
       id="rect66-4-9-4"
       style="fill:#040914;stroke:#102337;stroke-width:0"
       d="m 73.874947,187.68317 h 1.457771 v 12.55926 h -1.457771 z" /><path
       id="rect66-4-4"
       style="fill:#040914;stroke:#102337;stroke-width:0"
       d="m 139.50308,188.52785 h 1.45777 v 14.12917 h -1.45777 z" /><path
       id="rect66-4-8"
       style="fill:#040914;stroke:#102337;stroke-width:0"
       d="m 133.10934,188.89552 h 1.56991 v 14.01704 h -1.56991 z" /><path
       id="rect51"
       style="fill:#868d93;fill-opacity:1;stroke:#868d93;stroke-width:0.216111;stroke-linejoin:miter;stroke-miterlimit:4;stroke-dasharray:none;stroke-opacity:1"
       d="m 74.883628,48.028578 v 3.018225 h 23.092409 c 0.03299,-1.006799 0.07688,-2.013374 0.148323,-3.018225 z m 32.176742,0 v 0.599108 c -0.006,0.775199 0.0143,1.550707 -0.0157,2.32547 -0.002,0.0312 -0.004,0.06245 -0.005,0.09365 h 3.26252 c 0.001,-0.604928 0.001,-1.209883 0.005,-1.814774 0.002,-0.40108 0.006,-0.802316 0.009,-1.203451 z m 13.51948,0 c -0.0151,0.504283 -0.0269,1.008583 -0.036,1.512893 -0.008,0.501727 -0.009,1.003543 -0.0134,1.505332 h 2.78671 c 0.009,-0.145606 0.0168,-0.291328 0.0274,-0.436825 0.0293,-0.638761 0.005,-1.278489 0.0128,-1.917727 v -0.663673 z m 15.79493,0 c 0.006,0.247935 0.0113,0.495956 0.0186,0.743941 0.0254,0.757945 0.0467,1.51614 0.0663,2.274284 h 18.99812 v -3.018225 z" /><path
       id="rect51-8"
       style="fill:#868d93;fill-opacity:1;stroke:#868d93;stroke-width:0.248776;stroke-linejoin:miter;stroke-miterlimit:4;stroke-dasharray:none;stroke-opacity:1"
       d="m 61.151262,64.777424 v 2.986232 h 18.394356 c 0.03873,-0.996108 0.07625,-1.993098 0.164027,-2.986232 z m 93.131608,0 c 0.005,0.227034 0.008,0.454086 0.0128,0.681121 0.0138,-0.22721 0.0299,-0.454379 0.0494,-0.681121 z m 9.34317,0 c 0.002,0.02863 0.006,0.05654 0.007,0.08608 0.13901,0.317865 0.18511,0.746223 0.0617,1.28023 -0.0445,0.192084 -0.0806,0.386002 -0.12215,0.578749 -0.009,0.175867 -0.0187,0.351669 -0.0261,0.527564 -0.0132,0.17107 -0.0153,0.342357 -0.0134,0.513604 h 5.55949 v -2.986232 z" /><path
       id="rect51-8-0"
       style="fill:#868d93;fill-opacity:1;stroke:#868d93;stroke-width:0.258565;stroke-linejoin:miter;stroke-miterlimit:4;stroke-dasharray:none;stroke-opacity:1"
       d="m 56.922025,73.267305 v 2.975764 h 6.722224 c 0.0057,-0.991992 0.01549,-1.983855 0.02734,-2.975764 z m 109.756555,0 c 0.0158,0.913164 0.0326,1.826163 0.0744,2.739028 0.003,0.07892 0.008,0.157825 0.0113,0.236736 h 7.14625 v -2.975764 z" /><path
       id="rect51-7"
       style="fill:#868d93;fill-opacity:1;stroke:#868d93;stroke-width:0.231699;stroke-linejoin:miter;stroke-miterlimit:4;stroke-dasharray:none;stroke-opacity:1"
       d="m 69.653939,56.445171 v 3.003101 h 12.154329 v -2.647126 c 0,-0.126245 0.0083,-0.244233 0.02211,-0.355975 z m 22.851022,0 c 0.0014,0.340531 0.0066,0.681131 0.01687,1.021392 0.03559,0.660452 0.0685,1.321169 0.101786,1.981709 h 3.512052 c 0.187011,-1.00062 0.378815,-2.000657 0.555483,-3.003101 z m 44.291519,0 c -0.0118,0.348281 -0.0244,0.696375 -0.0332,1.044658 -0.015,0.652687 -0.0251,1.30563 -0.0349,1.958443 h 2.98275 c 0.006,-0.649753 0.0117,-1.299416 0.0227,-1.949136 0.007,-0.351063 0.0136,-0.70263 0.0239,-1.053965 z m 13.10999,0 c -0.0908,0.688153 -0.10254,1.387404 -0.11458,2.080009 -0.003,0.309383 0.0129,0.616804 0.0413,0.923092 h 12.91979 v -3.003101 z" /><path
       id="rect64"
       style="fill:#425567;stroke:#102337;stroke-width:0"
       d="M 7.8419442,169.39075 H 44.633582 v 2.21964 H 7.8419442 Z" /><path
       id="rect64-9"
       style="fill:#909195;stroke:#102337;stroke-width:0"
       d="M 7.5224276,175.39359 H 44.314065 v 1.58529 H 7.5224276 Z" /><path
       id="rect64-9-5"
       style="fill:#909195;stroke:#102337;stroke-width:0"
       d="m 187.68199,175.19144 h 36.79164 v 1.5853 h -36.79164 z" /><path
       id="rect64-5"
       style="fill:#425567;stroke:#102337;stroke-width:0"
       d="m 187.50943,169.30333 h 38.69465 v 2.22018 h -38.69465 z" /></g><path
     style="fill:#ffffff;stroke:#102337;stroke-width:0;fill-opacity:1"
     d="m 289.49462,570.18306 c 0.37085,-3.08962 1.68933,-3.94042 8.45706,-5.45727 4.40975,-0.98835 8.81524,-2.60028 9.78998,-3.58206 1.31984,-1.32939 1.68083,-20.31415 1.41412,-74.36872 -0.40406,-81.89255 0.64596,-75.50779 -12.70914,-77.27941 -7.08802,-0.94025 -7.26576,-1.09052 -7.26576,-6.14282 0,-4.73147 0.29283,-5.0726 3.38884,-3.94787 1.86386,0.67711 24.20647,1.0026 49.65024,0.72332 25.44377,-0.27929 48.31843,-0.056 50.83258,0.49621 l 4.57118,1.004 v 20.96643 c 0,17.09713 -0.39428,20.96643 -2.13643,20.96643 -1.30333,0 -3.43988,-3.96442 -5.47905,-10.16651 -1.83844,-5.59158 -4.56729,-12.60768 -6.06411,-15.59131 -2.57787,-5.13853 -3.21443,-5.47632 -12.06262,-6.40114 -5.13762,-0.53699 -16.01939,-0.97634 -24.1817,-0.97634 h -14.84056 v 34.86839 34.86839 l 15.43804,-0.87823 c 8.49092,-0.48303 16.57678,-1.31726 17.96856,-1.85384 3.19427,-1.2315 5.61168,-8.07288 6.77887,-19.18444 0.74669,-7.10838 1.41108,-8.66036 3.70745,-8.66036 2.64513,0 2.79774,1.88966 2.79774,34.64146 0,28.92715 -0.35293,34.64146 -2.13955,34.64146 -2.17854,0 -3.00183,-2.67944 -4.76025,-15.49246 -0.54412,-3.96474 -2.12151,-8.60685 -3.50532,-10.31578 -3.07996,-3.80359 -12.57509,-5.10804 -26.40268,-3.62722 l -9.88286,1.05836 v 33.58408 c 0,29.42166 0.30911,33.84028 2.49406,35.6512 4.06805,3.37164 38.95868,2.87091 45.41207,-0.65174 6.24299,-3.40778 12.44693,-13.0623 16.05825,-24.98966 2.17164,-7.17243 3.43078,-9.19218 5.73055,-9.19218 2.71077,0 2.85961,0.69522 1.85407,8.66036 -0.60132,4.7632 -1.88721,15.77693 -2.85754,24.47495 l -1.76422,15.81458 h -55.36561 -55.3656 z"
     id="path1"
     transform="scale(0.26458333)" /><path
     style="fill:#ffffff;fill-opacity:1;stroke:#102337;stroke-width:0"
     d="m 494.01734,572.80306 c -8.69801,-0.75049 -29.53937,-0.99116 -46.31412,-0.53481 l -30.49955,0.8297 v -4.45151 c 0,-3.86102 0.74922,-4.65958 5.64807,-6.02006 3.10643,-0.86269 6.85093,-1.57233 8.3211,-1.57694 1.4788,-0.005 3.3293,-1.73446 4.14192,-3.87183 0.87528,-2.30216 1.46887,-31.21316 1.46887,-71.54214 0,-76.26359 0.96735,-70.07508 -11.98671,-76.68374 -4.6406,-2.36746 -6.0871,-3.99291 -6.0871,-6.84017 v -3.73477 l 27.11071,-0.22592 c 14.91089,-0.12426 27.95792,-0.2937 28.9934,-0.37654 1.04648,-0.0837 2.08454,1.9194 2.33717,4.50998 0.42123,4.31958 -0.0747,4.85855 -6.77768,7.36588 -3.97769,1.4879 -8.07937,3.37079 -9.11485,4.18419 -1.45982,1.14674 -1.88269,17.84453 -1.88269,74.34278 v 72.86388 l 16.9442,-0.0331 c 13.38476,-0.0261 18.26934,-0.6347 23.2524,-2.89706 7.96729,-3.6172 14.34315,-12.32501 17.64766,-24.10222 2.08268,-7.4226 3.1416,-9.11525 5.70245,-9.11525 3.09823,0 3.12877,0.33774 2.06031,22.78438 -0.59649,12.53141 -1.44149,23.71458 -1.87776,24.85148 -0.89235,2.32544 -4.87531,2.36293 -29.0878,0.27377 z"
     id="path2"
     transform="scale(0.26458333)" /><path
     style="fill:#ffffff;fill-opacity:1;stroke:#102337;stroke-width:0"
     d="m 756.64834,570.58963 c -3.0796,-4.83753 -12.3796,-19.30091 -20.66666,-32.14085 -8.28708,-12.83993 -19.76808,-30.80077 -25.51332,-39.91298 -12.23643,-19.40751 -40.00572,-59.49295 -41.21389,-59.49295 -0.97797,0 0.65233,95.02682 1.90733,111.17349 0.94119,12.10946 1.45684,12.68675 13.00704,14.56244 5.29115,0.85924 5.64806,1.25438 5.64806,6.25287 v 5.33567 l -6.40114,-1.16336 c -3.52062,-0.63984 -14.02602,-1.02393 -23.34533,-0.85351 l -16.94419,0.30985 v -4.55041 c 0,-4.35906 0.27288,-4.5504 6.4898,-4.5504 12.37837,0 11.74787,2.86648 12.60542,-57.30876 0.41849,-29.36631 0.12432,-61.073 -0.65371,-70.4593 -1.37829,-16.62791 -1.54616,-17.19666 -6.53922,-22.15564 -7.07046,-7.02221 -15.24522,-8.26268 -22.42306,-3.40258 -4.45111,3.01385 -6.69589,6.98245 -14.76394,26.10154 -5.23309,12.40101 -13.03522,30.00273 -17.33806,39.11494 l -7.82336,16.56765 -0.005,33.88839 -0.005,33.88838 7.07917,1.74743 c 9.37753,2.31474 9.96431,2.78927 9.09198,7.35258 -0.74235,3.88333 -0.78919,3.895 -10.71761,2.6717 -10.57147,-1.30251 -23.9689,-1.20495 -38.21231,0.2783 l -8.66037,0.90185 v -4.3463 c 0,-4.02889 0.65998,-4.52981 9.0369,-6.8588 l 9.03691,-2.51248 -0.0492,-26.72784 c -0.0566,-30.7732 1.29985,-25.56935 -19.33399,-74.17159 -20.54787,-48.39978 -21.77856,-50.74783 -27.22556,-51.94419 -3.51297,-0.77158 -4.6004,-1.83409 -4.6004,-4.49498 0,-5.03866 3.24651,-5.63261 20.08661,-3.67485 8.26957,0.96139 19.38259,1.39904 24.69561,0.97256 7.1545,-0.57429 9.85681,-0.26264 10.41867,1.20155 1.50412,3.91966 -2.34101,7.94774 -8.59546,9.00442 -3.38201,0.57139 -6.48978,1.92667 -6.90616,3.01174 -0.41639,1.08508 3.29169,11.69237 8.24016,23.57177 4.94847,11.8794 11.49092,27.69881 14.53879,35.15426 3.04786,7.45544 6.12571,14.16028 6.83965,14.89964 3.02547,3.13315 33.26186,-69.38047 31.18581,-74.79056 -0.51669,-1.34647 -3.34724,-2.89984 -6.29012,-3.45192 -4.53496,-0.85077 -5.35068,-1.61358 -5.35068,-5.00368 v -3.99989 l 35.43558,-0.37706 35.43559,-0.37707 15.47374,23.74799 c 8.51054,13.0614 27.30013,42.11268 41.75461,64.55841 l 26.2809,40.81042 0.46526,-15.20586 c 0.69738,-22.79171 -2.51427,-97.68331 -4.26409,-99.43313 -0.83242,-0.83241 -4.38481,-2.57022 -7.89423,-3.86179 -5.10817,-1.87997 -6.4758,-3.16756 -6.85732,-6.45606 l -0.47658,-4.10774 h 11.17523 c 6.14637,0 15.34126,-0.43543 20.43307,-0.96763 l 9.25784,-0.96764 -0.004,4.35647 c -0.004,3.66219 -1.14383,4.95657 -7.15422,8.12186 l -7.14986,3.76537 0.59853,81.70866 c 0.41896,57.19619 0.11704,81.70866 -1.00644,81.70866 -0.88273,0 -2.64655,0.39971 -3.91961,0.88823 -1.63467,0.62728 -3.95962,-1.69573 -7.91394,-7.90729 z"
     id="path3"
     transform="scale(0.26458333)" /><path
     style="fill:#ffffff;fill-opacity:1;stroke:#102337;stroke-width:0"
     d="m 820.85199,571.18306 c 0,-4.45481 2.18769,-6.46394 11.97695,-10.99937 l 7.33511,-3.3984 1.01652,-9.54479 c 1.1948,-11.21885 0.4105,-128.63025 -0.86777,-129.9064 -0.47972,-0.47892 -7.13305,-0.93787 -14.78518,-1.01988 -16.30972,-0.1748 -17.00679,0.23612 -25.17355,14.83963 -4.61309,8.24898 -5.74556,9.40173 -7.50643,7.64085 -1.76088,-1.76087 -1.53319,-4.68212 1.50922,-19.36313 1.97063,-9.50917 4.02453,-19.83103 4.56424,-22.93747 1.24126,-7.14443 4.55435,-7.3458 7.05555,-0.42882 1.03802,2.87057 2.68837,5.52663 3.66744,5.90233 0.97908,0.37571 21.53108,0.29458 45.67113,-0.18028 l 43.891,-0.86339 1.20755,-4.66011 c 0.66416,-2.56306 2.35084,-4.88028 3.74818,-5.14939 2.30509,-0.44392 2.54062,1.94947 2.54062,25.81765 0,21.87441 -0.3768,26.45152 -2.23626,27.16506 -2.77934,1.06654 -4.12464,-1.50711 -7.56335,-14.46916 -1.4836,-5.59237 -3.44992,-10.79243 -4.36961,-11.5557 -1.45287,-1.20578 -14.1803,-2.10567 -24.61416,-1.74035 l -3.38884,0.11866 v 67.5885 c 0,67.51766 0.43439,77.00194 3.52676,77.00194 0.90423,0 4.54723,1.10874 8.09555,2.46385 5.60503,2.14057 6.4515,3.05321 6.4515,6.95581 v 4.49197 l -12.42574,-1.01094 c -16.67695,-1.35682 -36.75731,-1.39426 -43.67837,-0.0814 -5.30072,1.00546 -5.64806,0.84083 -5.64806,-2.67723 z"
     id="path4"
     transform="scale(0.26458333)" /><path
     style="fill:#ffffff;fill-opacity:1;stroke:#102337;stroke-width:0"
     d="m 899.17181,570.05762 c 0,-3.46724 1.04548,-4.48816 6.8767,-6.71512 4.69194,-1.79187 7.37757,-3.89054 8.45324,-6.60575 0.86709,-2.18876 9.98839,-38.20681 20.26954,-80.04014 10.28115,-41.83332 19.07407,-77.28609 19.53983,-78.78392 0.59338,-1.90826 2.04199,-2.58443 4.84012,-2.25923 3.82783,0.44488 4.29236,1.55614 11.21203,26.82174 3.97032,14.4967 12.31408,46.01289 18.54169,70.03599 6.22761,24.0231 12.97724,49.17492 14.99914,55.89292 3.6312,12.06512 3.7593,12.24631 10.471,14.80954 5.9584,2.27552 6.7949,3.14839 6.7949,7.09036 0,3.99498 -0.3772,4.3687 -3.3888,3.35732 -1.8639,-0.62593 -14.4026,-1.12014 -27.86382,-1.09822 -24.4233,0.0397 -24.47495,0.0326 -24.47495,-3.36509 0,-2.60706 1.32351,-3.83123 5.64807,-5.22416 7.31444,-2.35598 9.41344,-4.11132 9.41344,-7.87224 0,-1.68544 -2.47702,-12.46734 -5.50448,-23.95977 l -5.50448,-20.89534 -17.43314,0.42232 -17.43315,0.42232 -4.14431,17.32073 c -6.63927,27.74819 -6.1115,31.48582 4.83504,34.24155 4.27913,1.07723 5.36534,2.13284 5.76985,5.60723 l 0.49832,4.28018 -13.3006,-0.97587 c -7.31533,-0.53673 -16.85888,-0.40045 -21.20789,0.30284 l -7.90729,1.27871 z m 65.77728,-76.41681 c -1.38437,-8.8104 -12.09442,-48.57335 -13.08311,-48.57335 -0.76571,0 -13.53426,50.1037 -13.53426,53.10836 0,0.61218 6.18859,1.11305 13.75243,1.11305 h 13.75242 z"
     id="path5"
     transform="scale(0.26458333)" /><path
     style="fill:#ffffff;fill-opacity:1;stroke:#102337;stroke-width:0"
     d="m 263.57633,572.82692 c -3.72773,-0.79169 -14.40257,-1.05332 -23.72187,-0.58142 l -16.94419,0.85803 v -3.78422 c 0,-3.01361 1.23576,-4.27866 6.06854,-6.21236 3.33769,-1.33549 6.68423,-3.57858 7.43675,-4.98468 2.11833,-3.95813 2.70208,-144.13353 0.60897,-146.23052 -0.93518,-0.93691 -4.49346,-2.07811 -7.90729,-2.536 -5.8215,-0.78083 -6.20697,-1.1352 -6.20697,-5.70603 v -4.8735 l 27.11069,0.17682 27.11069,0.17683 2e-5,3.85414 c 1e-5,3.17847 -1.38622,4.49868 -7.90728,7.53075 l -7.90729,3.67661 -0.39078,73.29004 -0.39079,73.29004 6.0687,1.0253 c 7.18244,1.21346 10.52745,4.11821 10.52745,9.14185 0,4.10394 -1.8859,4.36666 -13.55535,1.88832 z"
     id="path6"
     transform="scale(0.26458333)" /><path
     style="fill:#ffffff;fill-opacity:1;stroke:#102337;stroke-width:0"
     d="m 146.58485,573.93446 c -17.39227,-5.43825 -30.4596,-20.55787 -39.13005,-45.27566 -4.04033,-11.51819 -4.2276,-13.27716 -4.24927,-39.91298 -0.0254,-31.25888 1.44551,-39.29371 10.6234,-58.02892 6.63846,-13.55137 16.20933,-24.45384 26.44285,-30.12185 7.65107,-4.23767 9.01172,-4.47748 25.40477,-4.47748 12.20155,0 19.81829,0.7734 25.77122,2.61682 l 8.45049,2.61683 2.41883,12.44468 c 1.33035,6.84457 2.86765,16.00296 3.41621,20.35196 0.95902,7.60309 0.85955,7.90716 -2.58549,7.90372 -2.80487,-0.003 -4.50616,-1.77064 -7.83475,-8.14119 -8.93966,-17.10949 -20.54887,-26.39107 -33.10015,-26.46362 -13.78551,-0.0797 -22.66223,10.30445 -29.77469,34.8309 -4.47058,15.41623 -5.92468,62.82798 -2.44323,79.6625 3.7838,18.29656 7.89939,27.55525 15.26765,34.34707 17.28889,15.93633 36.11382,9.10102 50.53692,-18.3499 4.6541,-8.85797 9.27618,-13.30668 11.50725,-11.07561 0.40546,0.40546 -0.30072,8.77 -1.56929,18.58787 -2.13913,16.55542 -2.63349,18.14563 -6.81308,21.91575 -2.47862,2.2358 -8.04644,5.11632 -12.37293,6.40114 -9.53541,2.83171 -31.15699,2.92258 -39.96666,0.16797 z"
     id="path8"
     transform="scale(0.26458333)" /><path
     style="fill:#ffffff;fill-opacity:1;stroke:#102337;stroke-width:0"
     d="m 301.23009,664.65206 c 2.89934,-0.8316 6.13743,-1.76496 7.19576,-2.07414 1.47114,-0.42978 1.82579,-5.62324 1.50615,-22.05612 l -0.41808,-21.49397 -9.59839,-0.45321 c -8.26371,-0.39018 -10.3693,0.081 -15.14246,3.38884 -3.04924,2.11313 -5.98139,3.84205 -6.51588,3.84205 -1.15337,0 3.06865,-10.66395 5.03881,-12.72697 0.85841,-0.89888 2.03839,-0.75889 3.17381,0.37653 2.31183,2.31183 61.45094,2.60173 61.45094,0.30123 0,-0.82838 1.01665,-1.50615 2.25923,-1.50615 1.70697,0 2.25922,1.84085 2.25922,7.53076 0,8.8296 -2.45327,9.92735 -6.57862,2.94369 -2.61054,-4.4193 -3.04932,-4.57078 -11.9974,-4.14191 l -9.28776,0.44514 -0.12223,19.57996 c -0.0672,10.76897 0.1677,20.71421 0.52207,22.10051 0.35437,1.38631 3.12045,3.18013 6.14684,3.98625 4.31619,1.14969 1.11877,1.4661 -14.83051,1.4676 -16.10208,10e-4 -19.23612,-0.31272 -15.0615,-1.51009 z"
     id="path9"
     transform="scale(0.26458333)" /><path
     style="fill:#ffffff;fill-opacity:1;stroke:#102337;stroke-width:0"
     d="m 362.22918,665.73133 c 0.82838,-0.27633 3.37001,-0.9135 5.64807,-1.41594 l 4.14191,-0.91351 v -23.31664 -23.31663 h -4.76948 c -2.62321,0 -4.32303,-0.44645 -3.77738,-0.9921 1.78608,-1.78607 41.09515,-2.29438 47.34234,-0.61219 8.61634,2.32014 13.91978,6.94828 13.91978,12.14734 0,4.41436 -4.78088,9.46728 -10.75016,11.36186 -3.85263,1.22278 -3.65335,1.63726 6.82599,14.19702 9.48313,11.36577 13.2788,13.33556 21.54395,11.18041 4.80519,-1.25296 6.0054,-2.98982 17.58171,-25.44316 9.05206,-17.5573 13.2329,-24.21769 15.40284,-24.53785 2.3968,-0.35364 5.00424,3.17548 13.35361,18.0738 5.70639,10.18229 12.01256,21.39059 14.01371,24.90734 2.52596,4.43904 5.09264,6.81523 8.39445,7.77145 3.49019,1.01078 -0.25476,1.37249 -14.07087,1.35903 -12.31909,-0.012 -17.10844,-0.42531 -13.85547,-1.19572 2.73429,-0.64756 5.40375,-1.6097 5.93214,-2.1381 0.52839,-0.52839 -0.51384,-3.9958 -2.31608,-7.70534 l -3.2768,-6.74464 h -12.08835 -12.08836 l -3.27679,6.74464 c -1.80224,3.70954 -2.84448,7.17695 -2.31608,7.70534 0.52839,0.5284 3.19785,1.49054 5.93213,2.1381 3.09777,0.73365 -4.4544,1.23549 -20.03837,1.33156 l -25.00979,0.15417 -6.48416,-9.41344 c -9.87332,-14.33368 -11.89539,-16.19112 -17.62616,-16.19112 h -5.07496 l 0.44252,10.78856 0.44252,10.78856 6.0246,1.85579 c 5.50516,1.69579 4.40134,1.85916 -12.80228,1.89482 -10.35478,0.0215 -18.14911,-0.18707 -17.32073,-0.46341 z m 118.23281,-21.14901 c 0,-1.71148 -7.55279,-15.60035 -8.95464,-16.46674 -1.40608,-0.86901 -9.11916,12.42177 -9.11916,15.71366 0,0.89795 3.82256,1.55622 9.0369,1.55622 4.97029,0 9.0369,-0.36141 9.0369,-0.80314 z m -75.70102,-8.53218 c 3.88539,-3.22459 4.91484,-6.77455 3.30429,-11.39457 -1.88516,-5.40777 -6.84669,-7.88696 -15.78394,-7.88696 h -6.70681 v 11.50349 11.5035 l 8.56117,-1.0062 c 4.70864,-0.55341 9.49002,-1.77707 10.62529,-2.71926 z"
     id="path10"
     transform="scale(0.26458333)" /><path
     style="fill:#ffffff;fill-opacity:1;stroke:#102337;stroke-width:0"
     d="m 520.37498,665.05339 c 1.65676,-0.73838 4.1052,-1.68097 5.44096,-2.09465 3.16092,-0.97891 4.97074,-18.19968 3.52931,-33.5819 l -1.04035,-11.10208 h -6.14888 c -4.91867,0 -5.77237,-0.37667 -4.267,-1.88269 1.36378,-1.36437 9.22159,-1.88269 28.54155,-1.88269 26.22538,0 26.80126,0.0695 35.35146,4.26806 10.9678,5.38569 16.16199,12.47975 16.15406,22.06267 -0.007,8.95002 -4.03756,15.30324 -13.07879,20.61767 -7.23826,4.25464 -7.29158,4.2612 -37.37161,4.59942 -18.59212,0.20905 -28.96992,-0.1752 -27.11071,-1.00381 z m 53.18243,-4.64503 c 11.89755,-7.25373 12.55432,-29.79425 1.12998,-38.78064 -5.03674,-3.9619 -18.47952,-6.86655 -25.59805,-5.53111 l -5.36903,1.00724 v 20.83308 c 0,19.82091 0.16263,20.94699 3.34743,23.17771 5.02458,3.51935 20.22348,3.11411 26.48967,-0.70628 z"
     id="path11"
     transform="scale(0.26458333)" /><path
     style="fill:#ffffff;fill-opacity:1;stroke:#102337;stroke-width:0"
     d="m 614.50938,664.34167 5.27153,-1.90072 0.41576,-22.83617 0.41577,-22.83617 h -5.31076 c -2.92091,0 -5.31075,-0.658 -5.31075,-1.46222 0,-0.86346 7.18629,-1.45068 17.54986,-1.43405 9.9531,0.016 16.9617,0.59371 16.19111,1.33468 -0.7473,0.71858 -3.05316,1.53335 -5.12411,1.81059 l -3.76538,0.50407 -0.41429,22.69394 -0.41428,22.69394 5.68581,1.59068 c 4.83133,1.35162 2.96962,1.60205 -12.38799,1.66642 -16.28037,0.0682 -17.55072,-0.11287 -12.80228,-1.82499 z"
     id="path12"
     transform="scale(0.26458333)" /><path
     style="fill:#ffffff;fill-opacity:1;stroke:#102337;stroke-width:0"
     d=""
     id="path13"
     transform="scale(0.26458333)" /><path
     style="fill:#ffffff;fill-opacity:1;stroke:#102337;stroke-width:0"
     d=""
     id="path14"
     transform="scale(0.26458333)" /><path
     style="fill:#ffffff;fill-opacity:1;stroke:#102337;stroke-width:0"
     d="m 667.22465,666.47157 c -7.86964,-0.51125 -11.42792,-1.05928 -7.90729,-1.21785 l 6.40113,-0.2883 v -21.65476 c 0,-23.77001 -0.22182,-24.39574 -9.42272,-26.58001 l -4.8857,-1.15985 4.51845,-0.23038 c 2.48515,-0.12671 7.90729,-0.41432 12.0492,-0.63914 7.49331,-0.40672 7.66828,-0.30857 35.18797,19.73722 15.21147,11.08028 27.8271,19.94006 28.03473,19.68838 0.69332,-0.84038 -1.9424,-34.56682 -2.76574,-35.39015 -0.44613,-0.44614 -3.04829,-1.30323 -5.78257,-1.90464 -4.23055,-0.93053 -3.24984,-1.26588 6.58078,-2.2503 11.97997,-1.19965 18.07298,-0.53575 12.5462,1.36706 -7.79081,2.68228 -7.56744,1.79511 -6.9795,27.72081 0.49648,21.8927 0.30212,24.30806 -1.95604,24.30806 -1.379,0 -12.47135,-7.32995 -24.64965,-16.28877 -24.26996,-17.85391 -35.77868,-25.88344 -37.09871,-25.88344 -1.20073,0 -0.90978,25.07847 0.37568,32.38223 0.99388,5.64702 1.41322,6.0539 6.69088,6.49206 3.0968,0.2571 5.63055,1.10431 5.63055,1.88269 0,0.77838 -0.50833,1.2855 -1.12961,1.12693 -0.62129,-0.15857 -7.56841,-0.7066 -15.43804,-1.21785 z"
     id="path15"
     transform="scale(0.26458333)" /><path
     style="fill:#ffffff;fill-opacity:1;stroke:#102337;stroke-width:0"
     d="m 779.854,666.64582 c -3.0819,-0.65544 -8.82853,-3.18562 -12.7703,-5.62263 -8.79845,-5.43967 -13.52935,-14.96254 -11.85834,-23.86978 1.5204,-8.10444 11.93214,-18.02388 22.08226,-21.03814 9.32223,-2.76841 29.54484,-2.93805 38.27284,-0.32106 5.23,1.56815 6.08685,2.44682 6.49657,6.66193 0.5112,5.2592 -1.20788,6.24656 -4.3287,2.48621 -7.60904,-9.16834 -27.96269,-10.90079 -38.01238,-3.23551 -6.45536,4.92374 -9.18674,12.38793 -8.21891,22.46026 1.29763,13.50472 10.23496,20.7918 25.5055,20.79598 11.03396,0.003 13.60113,-2.34036 12.98492,-11.85297 -0.39839,-6.15012 -0.89527,-7.03096 -4.21697,-7.47564 -2.07096,-0.27724 -4.36506,-1.08025 -5.098,-1.78446 -0.73534,-0.70652 5.50892,-1.28039 13.93189,-1.28039 14.10892,0 19.39365,1.38472 12.33221,3.23133 -2.40656,0.62933 -3.01417,2.33032 -3.38884,9.48701 -0.43212,8.25385 -0.69818,8.78768 -4.97499,9.98199 -6.62003,1.84866 -32.23755,2.75851 -38.73876,1.37587 z"
     id="path16"
     transform="scale(0.26458333)" /><path
     style="fill:#b6d0e2;fill-opacity:1;stroke:#102337;stroke-width:0"
     d="m 539.20186,735.00142 v -33.88839 h 4.51845 4.51845 v 33.88839 33.88838 h -4.51845 -4.51845 z"
     id="path17"
     transform="scale(0.26458333)" /><path
     style="fill:#7ac7ff;fill-opacity:1;stroke:#102337;stroke-width:0"
     d="m 573.84332,730.48296 c 0,-25.1025 0.32826,-29.36993 2.25922,-29.36993 1.93097,0 2.25923,4.26743 2.25923,29.36993 0,25.10251 -0.32826,29.36994 -2.25923,29.36994 -1.93096,0 -2.25922,-4.26743 -2.25922,-29.36994 z"
     id="path18"
     transform="scale(0.26458333)" /><path
     style="fill:#7ac7ff;fill-opacity:1;stroke:#102337;stroke-width:0"
     d="m 599.44788,731.23604 c 0,-24.43311 0.33029,-28.61686 2.25922,-28.61686 1.92893,0 2.25923,4.18375 2.25923,28.61686 0,24.43311 -0.3303,28.61686 -2.25923,28.61686 -1.92893,0 -2.25922,-4.18375 -2.25922,-28.61686 z"
     id="path19"
     transform="scale(0.26458333)" /><path
     style="fill:#7ac7ff;fill-opacity:1;stroke:#102337;stroke-width:0"
     d="m 630.20133,729.72989 c 0,-16.15346 0.22158,-22.7617 0.49239,-14.68497 0.27082,8.07673 0.27082,21.2932 0,29.36994 -0.27081,8.07673 -0.49239,1.46849 -0.49239,-14.68497 z"
     id="path20"
     transform="scale(0.26458333)" /><path
     style="fill:#7ac7ff;fill-opacity:1;stroke:#102337;stroke-width:0"
     d="m 624.29936,730.10643 v -28.61686 h 2.83422 2.83421 l 0.013,28.61686 0.013,28.61685 h -2.84722 -2.84721 z"
     id="path21"
     transform="scale(0.26458333)" /><path
     style="fill:#7ac7ff;fill-opacity:1;stroke:#102337;stroke-width:0"
     d="m 650.65699,728.60028 v -28.61686 h 2.63576 2.63577 v 28.61686 28.61685 h -2.63577 -2.63576 z"
     id="path22"
     transform="scale(0.26458333)" /><path
     style="fill:#7ac7ff;fill-opacity:1;stroke:#102337;stroke-width:0"
     d="m 682.62897,727.09413 c 0,-16.36056 0.0995,-23.05352 0.22105,-14.87324 0.12157,8.18028 0.12157,21.56619 0,29.74647 -0.12158,8.18028 -0.22105,1.48732 -0.22105,-14.87323 z"
     id="path23"
     transform="scale(0.26458333)" /><path
     style="fill:#7ac7ff;fill-opacity:1;stroke:#102337;stroke-width:0"
     d="m 677.01462,727.09413 v -29.36994 h 2.63577 2.63576 v 29.36994 29.36993 h -2.63576 -2.63577 z"
     id="path24"
     transform="scale(0.26458333)" /><path
     style="fill:#7ac7ff;fill-opacity:1;stroke:#102337;stroke-width:0"
     d="m 709.73929,725.21144 c 2.1e-4,-16.15347 0.0999,-22.65454 0.2216,-14.44683 0.12167,8.20771 0.12149,21.42418 -3.9e-4,29.36993 -0.12188,7.94576 -0.22143,1.23036 -0.22121,-14.9231 z"
     id="path25"
     transform="scale(0.26458333)" /><path
     style="fill:#7ac7ff;fill-opacity:1;stroke:#102337;stroke-width:0"
     d="m 704.12533,725.21144 v -28.9934 h 2.63576 2.63577 v 28.9934 28.99339 h -2.63577 -2.63576 z"
     id="path26"
     transform="scale(0.26458333)" /><path
     style="fill:#7ac7ff;fill-opacity:1;stroke:#102337;stroke-width:0"
     d=""
     id="path27"
     transform="scale(0.26458333)" /><path
     style="fill:#7ac7ff;fill-opacity:1;stroke:#102337;stroke-width:0"
     d=""
     id="path28"
     transform="scale(0.26458333)" /><path
     style="fill:#7ac7ff;fill-opacity:1;stroke:#102337;stroke-width:0"
     d="m 603.18676,758.77279 c 1.06276,-1.98579 1.06276,-53.08771 0,-55.0735 -0.61339,-1.14612 -0.53312,-1.45665 0.37653,-1.45665 1.01941,0 1.15611,3.42822 1.15611,28.9934 0,25.56518 -0.1367,28.9934 -1.15611,28.9934 -0.90965,0 -0.98992,-0.31053 -0.37653,-1.45665 z"
     id="path29"
     transform="scale(0.26458333)" /><path
     style="fill:#7ac7ff;fill-opacity:1;stroke:#102337;stroke-width:0"
     d="m 604.15624,744.03832 c 0.008,-1.65677 0.16258,-2.24586 0.34271,-1.3091 0.18013,0.93676 0.17329,2.29229 -0.0152,3.0123 -0.18849,0.72 -0.33587,-0.0464 -0.32751,-1.7032 z"
     id="path30"
     transform="scale(0.26458333)" /><path
     style="fill:#7ac7ff;fill-opacity:1;stroke:#102337;stroke-width:0"
     d="m 575.0223,757.52225 c -0.63963,-2.54847 -0.63963,-51.5301 0,-54.07857 0.62294,-2.482 1.53299,-2.50015 2.14973,-0.0429 0.62564,2.49273 0.62564,51.67155 0,54.16429 -0.61674,2.45728 -1.52679,2.43914 -2.14973,-0.0429 z"
     id="path31"
     transform="scale(0.26458333)" /><path
     style="fill:#7ac7ff;fill-opacity:1;stroke:#102337;stroke-width:0"
     d=""
     id="path32"
     transform="scale(0.26458333)" /><path
     style="fill:#7ac7ff;fill-opacity:1;stroke:#102337;stroke-width:0"
     d="m 579.45766,730.8595 c 0,-16.36056 0.0995,-23.05351 0.22105,-14.87323 0.12158,8.18028 0.12158,21.56619 0,29.74647 -0.12158,8.18028 -0.22105,1.48732 -0.22105,-14.87324 z"
     id="path33"
     transform="scale(0.26458333)" /><path
     style="fill:#7ac7ff;fill-opacity:1;stroke:#102337;stroke-width:0"
     d="m 575.0223,757.52225 c -0.63963,-2.54847 -0.63963,-51.5301 0,-54.07857 0.62294,-2.482 1.53299,-2.50015 2.14973,-0.0429 0.62564,2.49273 0.62564,51.67155 0,54.16429 -0.61674,2.45728 -1.52679,2.43914 -2.14973,-0.0429 z"
     id="path34"
     transform="scale(0.26458333)" /><path
     style="fill:#7ac7ff;fill-opacity:1;stroke:#102337;stroke-width:0"
     d="m 575.0223,757.52225 c -0.63963,-2.54847 -0.63963,-51.5301 0,-54.07857 0.62294,-2.482 1.53299,-2.50015 2.14973,-0.0429 0.62564,2.49273 0.62564,51.67155 0,54.16429 -0.61674,2.45728 -1.52679,2.43914 -2.14973,-0.0429 z"
     id="path35"
     transform="scale(0.26458333)" /><path
     style="fill:#7ac7ff;fill-opacity:1;stroke:#102337;stroke-width:0"
     d="m 575.0223,757.52225 c -0.63963,-2.54847 -0.63963,-51.5301 0,-54.07857 0.62294,-2.482 1.53299,-2.50015 2.14973,-0.0429 0.62564,2.49273 0.62564,51.67155 0,54.16429 -0.61674,2.45728 -1.52679,2.43914 -2.14973,-0.0429 z"
     id="path36"
     transform="scale(0.26458333)" /><path
     style="fill:#7ac7ff;fill-opacity:1;stroke:#102337;stroke-width:0"
     d="m 575.02297,758.2056 c -0.63661,-1.65898 -0.63661,-53.78629 0,-55.44527 0.61964,-1.61475 1.53517,-1.62604 2.14897,-0.0265 0.62335,1.62442 0.62335,53.87389 0,55.4983 -0.6138,1.59953 -1.52933,1.58823 -2.14897,-0.0265 z"
     id="path37"
     transform="scale(0.26458333)" /><path
     style="fill:#7ac7ff;fill-opacity:1;stroke:#102337;stroke-width:0"
     d=""
     id="path38"
     transform="scale(0.26458333)" /><path
     style="fill:#7ac7ff;fill-opacity:1;stroke:#102337;stroke-width:0"
     d="m 577.94289,709.21021 c 0.0233,-4.24457 0.2965,-7.71813 0.60715,-7.71902 0.71671,-0.002 0.6584,8.44793 -0.0857,12.42412 -0.40138,2.14475 -0.55155,0.78967 -0.52141,-4.7051 z"
     id="path39"
     transform="scale(0.26458333)" /><path
     style="fill:#7ac7ff;fill-opacity:1;stroke:#102337;stroke-width:0"
     d=""
     id="path40"
     transform="scale(0.26458333)" /><path
     style="fill:#7ac7ff;fill-opacity:1;stroke:#102337;stroke-width:0"
     d=""
     id="path41"
     transform="scale(0.26458333)" /><path
     style="fill:#7ac7ff;fill-opacity:1;stroke:#102337;stroke-width:0"
     d=""
     id="path42"
     transform="scale(0.26458333)" /><path
     style="fill:#7ac7ff;fill-opacity:1;stroke:#102337;stroke-width:0"
     d="m 579.33023,717.68069 c 0.006,-2.07096 0.15191,-2.82879 0.32501,-1.68407 0.1731,1.14472 0.16847,2.83914 -0.0103,3.76538 -0.17875,0.92623 -0.32038,-0.0104 -0.31473,-2.08131 z"
     id="path43"
     transform="scale(0.26458333)" /><path
     style="fill:#7ac7ff;fill-opacity:1;stroke:#102337;stroke-width:0"
     d=""
     id="path44"
     transform="scale(0.26458333)" /><path
     style="fill:#7ac7ff;fill-opacity:1;stroke:#102337;stroke-width:0"
     d="m 577.62733,758.29772 c 0.40394,-1.06244 0.80972,-11.48312 0.90173,-23.15706 l 0.1673,-21.22535 0.39751,17.32073 c 0.51147,22.2864 0.24556,28.9934 -1.14949,28.9934 -0.81753,0 -0.88807,-0.42982 -0.31705,-1.93172 z"
     id="path45"
     transform="scale(0.26458333)" /><path
     style="fill:#7ac7ff;fill-opacity:1;stroke:#102337;stroke-width:0"
     d="m 578.6249,750.43946 c 0,-3.52063 0.12973,-4.96089 0.28828,-3.20057 0.15854,1.76031 0.15854,4.64082 0,6.40114 -0.15855,1.76031 -0.28828,0.32005 -0.28828,-3.20057 z"
     id="path46"
     transform="scale(0.26458333)" /><path
     style="fill:#7ac7ff;fill-opacity:1;stroke:#102337;stroke-width:0"
     d="m 575.16998,760.44989 c 0.93676,-0.18013 2.2923,-0.17329 3.0123,0.0152 0.72001,0.18849 -0.0464,0.33587 -1.7032,0.32751 -1.65676,-0.008 -2.24586,-0.16258 -1.3091,-0.34271 z"
     id="path47"
     transform="scale(0.26458333)" /><path
     style="fill:#7ac7ff;fill-opacity:1;stroke:#102337;stroke-width:0"
     d="m 508.32577,727.09413 v -25.60456 h 2.63577 2.63576 v 25.60456 25.60455 h -2.63576 -2.63577 z"
     id="path48"
     transform="scale(0.26458333)" /><path
     style="fill:#7ac7ff;fill-opacity:1;stroke:#102337;stroke-width:0"
     d="m 483.47429,726.34105 v -25.60456 h 2.63576 2.63577 v 25.60456 25.60456 h -2.63577 -2.63576 z"
     id="path49"
     transform="scale(0.26458333)" /><path
     style="fill:#7ac7ff;fill-opacity:1;stroke:#102337;stroke-width:0"
     d="m 457.11666,724.8349 v -25.60456 h 2.63576 2.63577 v 25.60456 25.60456 h -2.63577 -2.63576 z"
     id="path50"
     transform="scale(0.26458333)" /><path
     style="fill:#7ac7ff;fill-opacity:1;stroke:#102337;stroke-width:0"
     d="m 431.5121,724.8349 v -25.60456 h 2.63576 2.63577 v 25.60456 25.60456 h -2.63577 -2.63576 z"
     id="path51"
     transform="scale(0.26458333)" /><path
     style="fill:#7ac7ff;fill-opacity:1;stroke:#102337;stroke-width:0"
     d="m 405.90754,723.32875 v -25.60456 h 2.63577 2.63576 v 25.60456 25.60456 h -2.63576 -2.63577 z"
     id="path52"
     transform="scale(0.26458333)" /><path
     style="fill:#7ac7ff;fill-opacity:1;stroke:#102337;stroke-width:0"
     d="m 379.54991,721.8226 v -25.60456 h 2.63576 2.63577 v 25.60456 25.60456 h -2.63577 -2.63576 z"
     id="path53"
     transform="scale(0.26458333)" /><path
     style="fill:#7ac7ff;fill-opacity:1;stroke:#102337;stroke-width:0"
     d="m 291.30254,709.96234 c 8.82944,-0.12056 23.06257,-0.1204 31.62915,3.4e-4 8.56659,0.12074 1.3425,0.21937 -16.05354,0.21919 -17.39604,-1.9e-4 -24.40506,-0.099 -15.57561,-0.21953 z"
     id="path54"
     transform="scale(0.26458333)" /><path
     style="fill:#7ac7ff;fill-opacity:1;stroke:#102337;stroke-width:0"
     d="m 275.62553,707.13763 v -2.63576 h 31.25262 31.25262 v 2.63576 2.63577 h -31.25262 -31.25262 z"
     id="path55"
     transform="scale(0.26458333)" /><path
     style="fill:#7ac7ff;fill-opacity:1;stroke:#102337;stroke-width:0"
     d="m 540.70801,785.83399 c -0.82838,-0.82838 -1.50615,-1.84503 -1.50615,-2.25922 0,-1.43951 3.02363,-3.76538 4.89499,-3.76538 1.87136,0 4.89499,2.32587 4.89499,3.76538 0,1.43951 -3.02363,3.76537 -4.89499,3.76537 -1.03548,0 -2.56046,-0.67776 -3.38884,-1.50615 z"
     id="path56"
     transform="scale(0.26458333)" /><path
     style="fill:#7ac7ff;fill-opacity:1;stroke:#102337;stroke-width:0"
     d="m 763.61827,707.51417 v -3.0123 h 31.25263 31.25262 v 3.0123 3.0123 H 794.8709 763.61827 Z"
     id="path57"
     transform="scale(0.26458333)" /><path
     id="path58"
     style="fill:#7ac7ff;fill-opacity:1;stroke:#102337;stroke-width:0"
     d="M 849.46876 620.15821 L 849.46876 624.29884 L 849.46876 628.44141 L 928.91798 628.44141 L 1008.3672 628.44141 L 1008.3672 624.29884 L 1008.3672 620.15821 L 928.91798 620.15821 L 849.46876 620.15821 z M 106.9375 620.91016 L 106.9375 625.05274 L 106.9375 629.19532 L 182.6211 629.19532 L 258.30469 629.19532 L 258.30469 625.05274 L 258.30469 620.91016 L 182.6211 620.91016 L 106.9375 620.91016 z "
     transform="scale(0.26458333)" /></svg>
